<svg width="64" height="64" viewBox="0 0 64 64" fill="none" xmlns="http://www.w3.org/2000/svg">
<path d="M63.9626 32C63.9626 40.4869 60.5932 48.6263 54.5955 54.6274C48.5979 60.6286 40.4633 64 31.9813 64C30.2811 63.9992 28.5836 63.8655 26.9043 63.6C22.9138 62.963 19.0811 61.5715 15.6109 59.5C15.0312 59.15 14.4615 58.79 13.9119 58.41C9.77101 55.5707 6.349 51.8043 3.91769 47.41C1.263 42.5777 -0.0986592 37.141 -0.035235 31.6271C0.0281892 26.1133 1.51454 20.7093 4.27969 15.9395C7.04483 11.1696 10.9949 7.19558 15.7469 4.40287C20.4989 1.61016 25.8914 0.0935089 31.4017 0L31.9813 0C40.4633 0 48.5979 3.37142 54.5955 9.37258C60.5932 15.3737 63.9626 23.5131 63.9626 32Z" fill="#00A651"/>
<path d="M59.7152 16.05V16.83C49.1114 16.83 40.9861 19.61 35.5593 25.09C26.9843 33.8 26.9043 47.16 26.9043 47.48V63.6C22.9139 62.963 19.0812 61.5715 15.6109 59.5H13.9119V58.41C9.77105 55.5707 6.34903 51.8043 3.91772 47.41C3.91772 43.73 4.72725 23.79 18.9889 9.19C22.5948 5.46624 26.7884 2.36144 31.4017 1.09732e-06H31.9813C37.6064 -0.00147266 43.1324 1.48158 48.0017 4.29953C52.871 7.11747 56.9114 11.1706 59.7152 16.05V16.05Z" fill="#414042"/>
<path d="M13.9119 54.5001V59.5001H16.9101V54.5001H13.9119ZM14.0718 44.3601C13.9319 45.9501 13.9119 47.0801 13.9119 47.6101V49.5001H16.9101V47.6101C16.9101 47.2301 16.9101 46.1601 17.06 44.6101L14.0718 44.3601ZM15.9907 34.2301C15.5109 35.8601 15.1112 37.5501 14.7914 39.2301L17.7396 39.7901C18.0395 38.1901 18.4192 36.6001 18.869 35.0601L15.9907 34.2301ZM19.9883 24.7001C19.1485 26.2067 18.4009 27.7629 17.7496 29.3601L20.518 30.5001C21.1315 29.0118 21.8289 27.5594 22.6068 26.1501L19.9883 24.7001ZM26.1447 16.3601C24.9318 17.6119 23.8096 18.9486 22.7867 20.3601L25.1953 22.1401C26.1442 20.8515 27.1793 19.6287 28.2935 18.4801L26.1447 16.3601ZM34.27 10.0001C32.7755 10.8626 31.3428 11.8283 29.9825 12.8901L31.8114 15.2701C33.0813 14.2926 34.4171 13.4039 35.8091 12.6101L34.27 10.0001ZM43.7944 6.00012C42.1388 6.47303 40.5106 7.03722 38.9173 7.69012L40.0666 10.4601C41.55 9.84724 43.0685 9.32299 44.6139 8.89012L43.7944 6.00012ZM48.9714 4.87012H48.8115L49.3312 7.87012C50.3306 7.69012 51.39 7.53012 52.4494 7.41012C51.348 6.48669 50.1861 5.63812 48.9714 4.87012V4.87012Z" fill="white"/>
<path d="M57.8577 37.5752L48.282 27.9939C46.4008 26.1116 43.3507 26.1116 41.4695 27.9939L31.8938 37.5752C30.0125 39.4576 30.0125 42.5094 31.8938 44.3918L41.4695 53.9731C43.3507 55.8554 46.4008 55.8554 48.282 53.973L57.8577 44.3918C59.7389 42.5094 59.7389 39.4576 57.8577 37.5752Z" fill="#FFF200"/>
<path d="M59.7252 38.64L47.2125 26.12C46.9062 25.8131 46.5424 25.5696 46.142 25.4035C45.7416 25.2374 45.3124 25.1519 44.8789 25.1519C44.4454 25.1519 44.0162 25.2374 43.6157 25.4035C43.2153 25.5696 42.8516 25.8131 42.5452 26.12L29.9826 38.64C29.6704 38.9451 29.4214 39.3088 29.2499 39.7103C29.0784 40.1119 28.9878 40.5433 28.9832 40.98C28.9861 41.4169 29.076 41.8488 29.2476 42.2506C29.4192 42.6523 29.669 43.0159 29.9826 43.32L42.5452 55.84C42.8516 56.1468 43.2153 56.3903 43.6157 56.5564C44.0162 56.7225 44.4454 56.8081 44.8789 56.8081C45.3124 56.8081 45.7416 56.7225 46.142 56.5564C46.5424 56.3903 46.9062 56.1468 47.2125 55.84L59.7252 43.32C60.0405 43.0172 60.2916 42.654 60.4633 42.2519C60.6351 41.8498 60.7239 41.4172 60.7246 40.98C60.7222 40.543 60.6326 40.1109 60.461 39.709C60.2893 39.3072 60.0392 38.9437 59.7252 38.64ZM59.0656 42.36L58.9357 42.5L46.413 55L46.2731 55.13C45.8863 55.4494 45.4004 55.6241 44.8989 55.6241C44.3973 55.6241 43.9115 55.4494 43.5247 55.13L43.3448 55L30.8321 42.52L30.6822 42.36C30.3712 41.9744 30.1987 41.4954 30.1924 41C30.1949 40.5008 30.3677 40.0174 30.6822 39.63L30.8321 39.47L43.3448 26.92C43.3951 26.862 43.4562 26.8145 43.5247 26.78V26.78C43.9082 26.4791 44.3815 26.3156 44.8689 26.3156C45.3563 26.3156 45.8295 26.4791 46.2131 26.78C46.2816 26.8145 46.3427 26.862 46.393 26.92L58.9657 39.45L59.0956 39.59C59.4158 39.982 59.5883 40.4741 59.5828 40.9804C59.5773 41.4867 59.3943 41.975 59.0656 42.36V42.36Z" fill="#414042"/>
<path d="M42.6652 48.91H39.8169V45.13C39.8195 43.9303 40.2977 42.7806 41.1465 41.9333C41.9952 41.0859 43.1453 40.61 44.3443 40.61C44.7905 40.6074 45.2175 40.4281 45.5321 40.1115C45.8467 39.7948 46.0233 39.3665 46.0233 38.92V36H48.8616V39C48.8616 40.1997 48.386 41.3504 47.5391 42.1997C46.6922 43.0489 45.5432 43.5274 44.3443 43.53C43.8989 43.53 43.4719 43.707 43.157 44.0221C42.8421 44.3371 42.6652 44.7644 42.6652 45.21V48.91Z" fill="#414042"/>
<path d="M47.4423 30.9399L50.3306 38.0099L47.4423 36.3299L44.564 38.0099L47.4423 30.9399Z" fill="#414042"/>
</svg>
