<svg xmlns="http://www.w3.org/2000/svg" viewBox="0 0 64 64"><defs><style>.cls-1{fill:#666766;}.cls-2{fill:#8dc63f;}.cls-3{fill:#009444;}.cls-4{fill:#d1d3d4;}</style></defs><g id="Layer_2" data-name="Layer 2"><g id="Layer_1-2" data-name="Layer 1"><path class="cls-1" d="M64,32A31.91,31.91,0,0,1,54,55.24a30.22,30.22,0,0,1-2.66,2.26A31.82,31.82,0,0,1,38.5,63.34c-.66.14-1.32.25-2,.34s-1.32.17-2,.23S32.84,64,32,64s-1.68,0-2.5-.09-1.34-.13-2-.23-1.34-.2-2-.34A32,32,0,0,1,13,6.25a32.5,32.5,0,0,1,4-2.53A32.06,32.06,0,0,1,50,5.54a29.17,29.17,0,0,1,2.58,2A31.94,31.94,0,0,1,64,32Z"/><path class="cls-2" d="M36.5.32V63.68c-.66.1-1.32.17-2,.23S32.84,64,32,64s-1.68,0-2.5-.09-1.34-.13-2-.23V.32a31.8,31.8,0,0,1,9,0Z"/><path class="cls-3" d="M25.5,1.7v3h4v-3Zm9,1.21v3h4v-3Zm-9,4.79v3h4v-3Zm9,1.21v3h4v-3Zm-9,4.79v3h4v-3Zm9,1.21v3h4v-3Zm-9,4.79v3h4v-3Zm9,1.21v3h4v-3Zm-9,4.79v3h4v-3Zm9,1.21v3h4v-3Zm-9,4.79v3h4v-3Zm9,1.21v3h4v-3Zm-9,4.79v3h4v-3Zm9,1.21v3h4v-3Zm-9,4.79v3h4v-3Zm9,1.21v3h4v-3Zm-9,4.79v3h4v-3Zm9,1.21v3h4v-3Zm-9,4.79v3h4v-3Zm9,1.21v3h4v-3Zm-9,4.79v1.64c.66.14,1.32.25,2,.34s1.32.17,2,.23V61.7Zm9,1.21v1c.68-.06,1.34-.13,2-.23s1.34-.2,2-.34v-.43Z"/><path class="cls-4" d="M13,6.25V7.5h4V3.72Zm0,6.25v5h4v-5Zm0,10v5h4v-5Zm0,10v5h4v-5Zm0,10v5h4v-5Zm0,10v5h4v-5Z"/><path class="cls-4" d="M50,5.54v2h2.58A29.17,29.17,0,0,0,50,5.54Zm0,7v5h4v-5Zm0,10v5h4v-5Zm0,10v5h4v-5Zm0,10v5h4v-5Zm0,10v5h1.34L54,55.24V52.5Z"/></g></g></svg>