<svg xmlns="http://www.w3.org/2000/svg" viewBox="0 0 64 64"><defs><style>.cls-1{fill:#666766;}.cls-2{fill:none;}.cls-3{fill:#d1d3d4;}.cls-4{fill:#fff200;}.cls-5{fill:#ed1c24;}</style></defs><g id="Layer_2" data-name="Layer 2"><g id="Layer_1-2" data-name="Layer 1"><path class="cls-1" d="M64,32A31.93,31.93,0,0,1,52.5,56.57c-.38.32-.77.63-1.16.93l-.84.62A31.81,31.81,0,0,1,33.25,64c-.42,0-.83,0-1.25,0s-.83,0-1.25,0A31.81,31.81,0,0,1,13.5,58.12l-.84-.62c-.39-.3-.78-.61-1.16-.93a32,32,0,0,1,0-49.14c.65-.55,1.31-1.06,2-1.55s1.32-.9,2-1.31A31.85,31.85,0,0,1,30.75,0c.42,0,.83,0,1.25,0s.83,0,1.25,0A31.85,31.85,0,0,1,48.5,4.57c.68.41,1.35.85,2,1.31s1.35,1,2,1.55A31.93,31.93,0,0,1,64,32Z"/><polyline class="cls-2" points="13.5 5.88 13.5 7.5 13.5 12.5 13.5 17.5 13.5 22.5 13.5 27.5 13.5 32.5 13.5 37.5 13.5 42.5 13.5 47.5 13.5 52.5 13.5 57.5 13.5 58.12"/><path class="cls-3" d="M13.5,5.88c-.69.49-1.35,1-2,1.55V7.5h4V4.57C14.82,5,14.15,5.42,13.5,5.88Zm-2,6.62v5h4v-5Zm0,10v5h4v-5Zm0,10v5h4v-5Zm0,10v5h4v-5Zm0,14.07V52.5h4v5H12.66Z"/><polyline class="cls-2" points="50.5 5.88 50.5 7.5 50.5 12.5 50.5 17.5 50.5 22.5 50.5 27.5 50.5 32.5 50.5 37.5 50.5 42.5 50.5 47.5 50.5 52.5 50.5 57.5 50.5 58.12"/><path class="cls-3" d="M50.5,5.88c-.65-.46-1.32-.9-2-1.31V7.5h4V7.43C51.85,6.88,51.19,6.37,50.5,5.88Zm-2,6.62v5h4v-5Zm0,10v5h4v-5Zm0,10v5h4v-5Zm0,10v5h4v-5Zm4,14.07V52.5h-4v5h2.84Z"/><path class="cls-4" d="M33.25,0V64c-.42,0-.83,0-1.25,0s-.83,0-1.25,0V0c.42,0,.83,0,1.25,0S32.83,0,33.25,0Z"/><path class="cls-5" d="M29.75.31V2.36h2v-2Zm0,4.09V6.45h2v-2Zm0,4.09v2h2v-2Zm0,4.09v2h2v-2Zm0,4.09v2h2v-2Zm0,4.09v2h2v-2Zm0,4.08v2.05h2V24.84Zm0,4.09V31h2V28.93Zm0,4.09v2h2V33Zm0,4.09v2h2v-2Zm0,4.09v2h2v-2Zm0,4.09v2h2v-2Zm0,4.09v2h2v-2Zm0,4.09v2h2v-2Zm0,4.08V59.6h2V57.55Zm0,4.09v2h2v-2Z"/><path class="cls-5" d="M32.25.31V2.36h2v-2Zm0,4.09V6.45h2v-2Zm0,4.09v2h2v-2Zm0,4.09v2h2v-2Zm0,4.09v2h2v-2Zm0,4.09v2h2v-2Zm0,4.08v2.05h2V24.84Zm0,4.09V31h2V28.93Zm0,4.09v2h2V33Zm0,4.09v2h2v-2Zm0,4.09v2h2v-2Zm0,4.09v2h2v-2Zm0,4.09v2h2v-2Zm0,4.09v2h2v-2Zm0,4.08V59.6h2V57.55Zm0,4.09v2h2v-2Z"/></g></g></svg>