<svg xmlns="http://www.w3.org/2000/svg" viewBox="0 0 64 64"><defs><style>.cls-1{fill:#666766;}.cls-2{fill:none;}.cls-3{fill:#d1d3d4;}.cls-4{fill:#e6e638;}</style></defs><g id="Layer_2" data-name="Layer 2"><g id="Layer_1-2" data-name="Layer 1"><path class="cls-1" d="M64,32A31.93,31.93,0,0,1,52.5,56.57c-.38.32-.77.63-1.16.93l-.84.62A31.76,31.76,0,0,1,38,63.44a31,31,0,0,1-4,.5c-.65,0-1.3.06-2,.06-1,0-2,0-3-.15a29.24,29.24,0,0,1-4-.63,31.92,31.92,0,0,1-11.46-5.1l-.84-.62c-.39-.3-.78-.61-1.16-.93a32,32,0,0,1,0-49.14c.65-.55,1.31-1.06,2-1.55s1.32-.9,2-1.31A31.8,31.8,0,0,1,25,.78a29.24,29.24,0,0,1,4-.63C30,.05,31,0,32,0c.66,0,1.31,0,2,.06a31,31,0,0,1,4,.5,31.78,31.78,0,0,1,10.54,4c.68.41,1.35.85,2,1.31s1.35,1,2,1.55A31.93,31.93,0,0,1,64,32Z"/><polyline class="cls-2" points="13.5 5.88 13.5 7.5 13.5 12.5 13.5 17.5 13.5 22.5 13.5 27.5 13.5 32.5 13.5 37.5 13.5 42.5 13.5 47.5 13.5 52.5 13.5 57.5 13.5 58.12"/><path class="cls-3" d="M13.5,5.88c-.69.49-1.35,1-2,1.55V7.5h4V4.57C14.82,5,14.15,5.42,13.5,5.88Zm-2,6.62v5h4v-5Zm0,10v5h4v-5Zm0,10v5h4v-5Zm0,10v5h4v-5Zm0,10v4.07c.38.32.77.63,1.16.93H15.5v-5Z"/><polyline class="cls-2" points="50.5 5.88 50.5 7.5 50.5 12.5 50.5 17.5 50.5 22.5 50.5 27.5 50.5 32.5 50.5 37.5 50.5 42.5 50.5 47.5 50.5 52.5 50.5 57.5 50.5 58.12"/><path class="cls-3" d="M50.5,5.88c-.65-.46-1.32-.9-2-1.31V7.5h4V7.43C51.85,6.88,51.19,6.37,50.5,5.88Zm-2,6.62v5h4v-5Zm0,10v5h4v-5Zm0,10v5h4v-5Zm0,10v5h4v-5Zm0,10v5h2.84c.39-.3.78-.61,1.16-.93V52.5Z"/><path class="cls-4" d="M29,.15v63.7a29.24,29.24,0,0,1-4-.63V.78A29.24,29.24,0,0,1,29,.15Z"/><path class="cls-4" d="M38,.56V63.44a31,31,0,0,1-4,.5V.06A31,31,0,0,1,38,.56Z"/></g></g></svg>