<svg xmlns="http://www.w3.org/2000/svg" viewBox="0 0 64 64"><defs><style>.cls-1{fill:#129f49;}.cls-2{fill:#414042;}.cls-3{fill:#d1d3d4;}.cls-4{fill:#666766;}.cls-5{fill:#92d5db;}</style></defs><g id="Layer_2" data-name="Layer 2"><g id="Layer_1-2" data-name="Layer 1"><path class="cls-1" d="M64,32c0,.73,0,1.45-.07,2.16A32,32,0,0,1,34.15,63.93c-.71,0-1.43.07-2.15.07A32,32,0,0,1,9.93,55.18c-.83-.81-1.63-1.65-2.37-2.53A31.83,31.83,0,0,1,0,32c0-.59,0-1.18.05-1.76A32,32,0,0,1,30.24.05c.59,0,1.17,0,1.76,0A31.85,31.85,0,0,1,52.65,7.56a31.51,31.51,0,0,1,2.53,2.37A31.89,31.89,0,0,1,64,32Z"/><polygon class="cls-2" points="56.36 51.66 7.64 51.66 31.37 16.05 32.63 16.05 56.36 51.66"/><path class="cls-3" d="M57.06,52H6.94L31.17,15.68h1.66ZM8.34,51.29H55.66L32.43,16.43h-.86Z"/><line class="cls-4" x1="32" y1="22.69" x2="32" y2="47.6"/><polygon class="cls-3" points="33.53 22.69 33.98 25.93 30.02 25.93 30.47 22.69 33.53 22.69"/><polygon class="cls-3" points="34.44 29.16 34.89 32.4 29.11 32.4 29.57 29.16 34.44 29.16"/><polygon class="cls-3" points="35.34 35.64 35.8 38.88 28.2 38.88 28.66 35.64 35.34 35.64"/><polygon class="cls-3" points="36.25 42.12 36.71 45.35 27.29 45.35 27.75 42.12 36.25 42.12"/><path class="cls-5" d="M61,18.38l-.11,0C37,13.94,17.22,17.14,2.29,20.09a32,32,0,0,1,28-20c.59,0,1.17,0,1.76,0A31.85,31.85,0,0,1,52.65,7.56a31.51,31.51,0,0,1,2.53,2.37A32,32,0,0,1,61,18.38Z"/></g></g></svg>