<svg xmlns="http://www.w3.org/2000/svg" viewBox="0 0 64 64"><defs><style>.cls-1{fill:#129f49;}.cls-2{fill:#414042;}.cls-3{fill:#d1d3d4;}.cls-4{fill:#666766;}.cls-5{fill:#92d5db;}</style></defs><g id="Layer_2" data-name="Layer 2"><g id="Layer_1-2" data-name="Layer 1"><path class="cls-1" d="M64,32c0,.73,0,1.45-.07,2.16A32,32,0,0,1,34.15,63.93c-.71,0-1.43.07-2.15.07A32,32,0,0,1,9.93,55.18c-.83-.81-1.63-1.65-2.37-2.53A31.83,31.83,0,0,1,0,32c0-.59,0-1.18.05-1.76A32,32,0,0,1,30.24.05c.59,0,1.17,0,1.76,0A31.85,31.85,0,0,1,52.65,7.56a31.51,31.51,0,0,1,2.53,2.37A31.89,31.89,0,0,1,64,32Z"/><path class="cls-2" d="M57.31,51.66c-13.28,0-27.28,0-39.79,0H12.28c-1.58,0-3.61.32-5-.2,1.24-4.36,4.25-8.65,6.21-12.76,2.42-5.09,6.51-7,10.51-10.55a17,17,0,0,0,1.17-1.4,40,40,0,0,0,4.62-8.46l.77-.88L32,15.62c.62.5,1.23,1,1.84,1.58l1.28,1.6a22.61,22.61,0,0,0,4.29,7.62c.38.45.77.9,1.2,1.33,2.57,2.56,5.74,4.41,8,7.33C52.25,39.79,54.68,46.3,57.31,51.66Z"/><path class="cls-3" d="M9.4,52.09a6.89,6.89,0,0,1-2.3-.31l-.33-.12.09-.34a43.44,43.44,0,0,1,4-8.53c.83-1.48,1.61-2.89,2.28-4.29,1.78-3.74,4.44-5.79,7.26-8,1.09-.84,2.22-1.71,3.34-2.71a17.41,17.41,0,0,0,1.13-1.35,38.9,38.9,0,0,0,4.56-8.37l.06-.1.78-.89c.51-.58,1-1.16,1.51-1.75L32,15.1l.28.23c.68.54,1.29,1.06,1.86,1.59l1.39,1.77a22.13,22.13,0,0,0,4.22,7.49c.41.49.8.92,1.18,1.3a41.14,41.14,0,0,0,3.24,2.82,28,28,0,0,1,4.77,4.55c2.7,3.51,4.72,7.95,6.67,12.24.7,1.54,1.37,3,2.06,4.4l.26.54h-.6C44,52,30,52,17.52,52H12.28c-.42,0-.87,0-1.33,0S9.91,52.09,9.4,52.09Zm-1.71-.92a11.32,11.32,0,0,0,3.22.12c.47,0,.94,0,1.37,0h5.24c12.31,0,26.09,0,39.19,0-.6-1.25-1.19-2.53-1.8-3.88C53,43.14,51,38.75,48.33,35.31a27.36,27.36,0,0,0-4.65-4.42c-1.11-.91-2.26-1.84-3.3-2.88-.4-.4-.8-.84-1.23-1.35A23,23,0,0,1,34.82,19l-1.25-1.55q-.66-.62-1.5-1.29l-1.28,1.48-.73.84a39.15,39.15,0,0,1-4.64,8.47c-.41.55-.8,1-1.19,1.44-1.17,1-2.31,1.92-3.42,2.77-2.74,2.11-5.33,4.1-7,7.68-.69,1.43-1.51,2.91-2.3,4.33A44.2,44.2,0,0,0,7.69,51.17Z"/><line class="cls-4" x1="32" y1="22.69" x2="32" y2="47.6"/><polygon class="cls-3" points="33.53 22.69 33.98 25.93 30.02 25.93 30.47 22.69 33.53 22.69"/><polygon class="cls-3" points="34.44 29.16 34.89 32.4 29.11 32.4 29.57 29.16 34.44 29.16"/><polygon class="cls-3" points="35.34 35.64 35.8 38.88 28.2 38.88 28.66 35.64 35.34 35.64"/><polygon class="cls-3" points="36.25 42.12 36.71 45.35 27.29 45.35 27.75 42.12 36.25 42.12"/><path class="cls-5" d="M61,18.38l-.11,0C37,13.94,17.22,17.14,2.29,20.09a32,32,0,0,1,28-20c.59,0,1.17,0,1.76,0A31.85,31.85,0,0,1,52.65,7.56a31.51,31.51,0,0,1,2.53,2.37A32,32,0,0,1,61,18.38Z"/></g></g></svg>