<svg xmlns="http://www.w3.org/2000/svg" viewBox="0 0 64 64"><defs><style>.cls-1{fill:#666766;}.cls-2{fill:#414042;}.cls-3{fill:#d1d3d4;}.cls-4{fill:#fff200;}.cls-5{fill:#dcddde;}</style></defs><g id="Layer_2" data-name="Layer 2"><g id="Layer_1-2" data-name="Layer 1"><path class="cls-1" d="M64,32c0,.17,0,.33,0,.5A32,32,0,0,1,47.22,60.15a31.24,31.24,0,0,1-4.46,2h0l-1,.34a31.24,31.24,0,0,1-4.24,1,32.12,32.12,0,0,1-21.92-4.06h0c-.48-.28-1-.58-1.41-.89l-.11-.07a3.05,3.05,0,0,0-.32-.22h0c-.37-.26-.73-.52-1.08-.79l-.29-.23a32,32,0,0,1,0-50.5l.29-.23a30.76,30.76,0,0,1,3.71-2.43l.29-.17A31.85,31.85,0,0,1,31,0l1,0h.17c.94,0,1.88.06,2.79.14l.39,0A28.67,28.67,0,0,1,39.7.94c.67.16,1.34.35,2,.56A31.95,31.95,0,0,1,63.26,25.13c.05.25.11.49.15.74A31.7,31.7,0,0,1,64,32Z"/><path class="cls-2" d="M35.35.57v8.9a2.06,2.06,0,0,1-1.34,2,2,2,0,0,1-2.66-1.89V.45h0A31.17,31.17,0,0,1,35.35.57Z"/><path class="cls-3" d="M14.22,55.94c-.18.9-.33,1.82-.49,2.77,0,0,0,0,0,.06l0,.23h.36c.5.33,1,.66,1.52,1,0,0,0,0,0-.06,0-.3.08-.6.14-.9.14-.92.3-1.81.47-2.67Zm2.42-7.81L16.35,48h0c-.11.3-.21.6-.31.91A.19.19,0,0,0,16,49c-.31.94-.61,1.91-.87,2.91l1.93.52c.34-1.3.73-2.56,1.15-3.75Zm3.21-7.52a35.3,35.3,0,0,0-2,3.61l1.81.85a32.46,32.46,0,0,1,1.85-3.41Zm4.87-6.52c-1,1.17-1.81,2.18-2.55,3.15l1.6,1.21c.71-1,1.5-1.92,2.47-3.07ZM29.9,28l-.37.45c-.72.88-1.45,1.73-2.19,2.57l1.51,1.32c.75-.86,1.49-1.73,2.23-2.62l.38-.47Zm4.4-6.48c-.63,1.12-1.33,2.24-2.07,3.33L33.88,26c.78-1.13,1.5-2.29,2.16-3.46Zm3.22-7.11c-.42,1.23-.91,2.45-1.44,3.63l1.82.82c.56-1.23,1.07-2.51,1.51-3.8Zm1.82-7.58a38.23,38.23,0,0,1-.73,3.84l2,.46c.32-1.32.57-2.67.76-4Zm.36-5.49,0,1.63,2,0,0-1.11C41,1.72,40.37,1.53,39.7,1.37Z"/><path class="cls-4" d="M64,32.43c0,.17,0,.33,0,.5q-1.16,1.65-2.46,3.24c-1,1.19-2,2.34-2.94,3.44a66.62,66.62,0,0,0-6.31,8,40.15,40.15,0,0,0-5.06,12.93l-4.46,2h0A47,47,0,0,1,48.91,45.5,69.1,69.1,0,0,1,55.57,37c1-1.09,1.93-2.22,2.86-3.36a47.42,47.42,0,0,0,5-7.33A31.7,31.7,0,0,1,64,32.43Z"/><path class="cls-3" d="M12.35,54v4c.35.27.71.53,1.08.79l0,.23h3V54Zm0-10v5h4V44Zm0-10v5h4V34Zm0-10v5h4V24Zm0-10v5h4V14Zm0-7V9h4V4.42A32.25,32.25,0,0,0,12.35,7Z"/><path class="cls-5" d="M43.73,21.32a2.2,2.2,0,0,1-2.33-2.44,2.25,2.25,0,0,1,2.37-2.5,2.92,2.92,0,0,1,1.22.25l.19-.64a3.37,3.37,0,0,0-1.44-.27,3,3,0,0,0-3.17,3.19,2.84,2.84,0,0,0,3,3.07,3.77,3.77,0,0,0,1.6-.29L45,21.07A3,3,0,0,1,43.73,21.32Z"/><path class="cls-5" d="M46.35,16v6h1V16Z"/><path class="cls-5" d="M54,16H53L51.88,19c-.27.76-.49,1.44-.64,2.05h0c-.15-.63-.36-1.3-.62-2.05l-1-2.95h-1l-.41,6h.75l.16-2.46c0-.86.09-1.83.11-2.54h.12c.16.69.4,1.43.67,2.25L50.88,22h.57l1-2.81c.29-.8.53-1.51.73-2.19h.13c0,.71,0,1.68.09,2.48L53.56,22h.77Z"/><path class="cls-5" d="M58,16h-.48c.09.37.19.75.32,1.16L58.47,19H56.54l.62-1.85c.13-.38.23-.77.33-1.15h-.44l-2,6h.7l.66-2h2.25l.68,2H60Z"/><rect class="cls-4" x="24.12" y="39.2" width="17.89" height="17.89" rx="4.82" transform="translate(43.73 -9.28) rotate(45)"/><path class="cls-2" d="M33.06,60.36a2.54,2.54,0,0,1-1.8-.75L21.6,50a2.55,2.55,0,0,1,0-3.61l9.66-9.66a2.55,2.55,0,0,1,3.61,0l9.66,9.66a2.55,2.55,0,0,1,0,3.61l-9.66,9.66A2.54,2.54,0,0,1,33.06,60.36Zm0-23.55a1.67,1.67,0,0,0-1.18.49L22.22,47a1.67,1.67,0,0,0,0,2.37L31.88,59a1.72,1.72,0,0,0,2.37,0l9.66-9.66a1.68,1.68,0,0,0,0-2.37L34.25,37.3A1.67,1.67,0,0,0,33.06,36.81Z"/><polygon class="cls-2" points="32.8 51.73 31.4 49.5 34.41 47.61 34.41 41.29 37.04 41.29 37.04 49.06 32.8 51.73"/><rect class="cls-2" x="30.89" y="41.03" width="2.63" height="15.28"/></g></g></svg>