<svg xmlns="http://www.w3.org/2000/svg" viewBox="0 0 64 64"><defs><style>.cls-1{fill:#00a651;}.cls-2{fill:#414042;}.cls-3{fill:#fff;}</style></defs><g id="Layer_2" data-name="Layer 2"><g id="Layer_1-2" data-name="Layer 1"><path class="cls-1" d="M64,32A32,32,0,0,1,32,64a32.65,32.65,0,0,1-5.08-.4c-1-.16-2-.37-3-.62l-.48-.13c-.35-.09-.69-.19-1-.3s-.84-.27-1.26-.42l-.11,0h0l-.06,0h0l-.08,0h0a0,0,0,0,1,0,0h-.14l-.08,0,0,0h0l-.1,0-.18-.07-.1,0L20,61.68l-.07,0h-.05s0,0,0,0h-.18l0,0h-.06l-.05,0h-.06l-.05,0h-.05l0,0h-.07a32.15,32.15,0,0,1-3.65-1.87c-.58-.35-1.15-.71-1.7-1.09h-.08l0,0h0a0,0,0,0,0,0,0h-.13l0,0h0l-.06,0L13.38,58l-.69-.51c-1-.76-1.13-.89-1.27-1a31.62,31.62,0,0,1-3.76-3.74q-.31-.36-.6-.72l-.24-.3-.27-.35h0l0,0v0l0,0a0,0,0,0,1,0,0h0s0,0,0,0h0a0,0,0,0,0,0,0h0v0a0,0,0,0,0,0,0h0a0,0,0,0,1,0,0h0s0,0,0,0h0v0h0l0,0,0,0c-.45-.61-.88-1.24-1.28-1.88s-.66-1.08-1-1.63a30.86,30.86,0,0,1-1.54-3.23A31.41,31.41,0,0,1,.7,38.68,32,32,0,0,1,26.49.47,33.34,33.34,0,0,1,31.42,0H32a31.83,31.83,0,0,1,4.28.29h.47a0,0,0,0,1,0,0h.13a0,0,0,0,0,0,0h.3a0,0,0,0,1,0,0h.45l.07,0h.1l.08,0H38l.11,0h.06l.13,0s0,0,0,0h0l.12,0h0l.07,0c.36.07.72.15,1.07.24h0l.15,0h0a0,0,0,0,0,0,0h.06L40,1h.11l.05,0h0a0,0,0,0,1,0,0h.06a0,0,0,0,1,0,0h0a0,0,0,0,1,0,0h0a0,0,0,0,1,0,0h.07a0,0,0,0,0,0,0h.09a0,0,0,0,1,0,0h0s0,0,0,0h.05l.06,0h.06a0,0,0,0,1,0,0l.44.12a31.19,31.19,0,0,1,4.66,1.8q.85.41,1.68.87a6.65,6.65,0,0,1,.58.33l.73.43h0l0,0h0l0,0H49c.39.25.78.5,1.15.76.81.56,1.58,1.14,2.33,1.77s1.32,1.14,1.94,1.76l.26.26.31.31h0a.46.46,0,0,1,.07.07h0l0,0h0l0,0h.1s0,0,0,0h.06s0,0,0,0,0,0,0,0h0s0,0,0,0h0l.1.1c.63.7,1.24,1.42,1.82,2.16a31.52,31.52,0,0,1,2.38,3.56c.13.23.27.47.39.71A30.53,30.53,0,0,1,62,20.83,31.8,31.8,0,0,1,64,32Z"/><path class="cls-2" d="M59.75,16.05v.78H57.51l-1.06.06H56a0,0,0,0,0,0,0h-.36l-.82.07a39.08,39.08,0,0,0-4.94.73h-.07s0,0,0,0h-.37l-.07,0h0l-.07,0-.88.21h0l-.07,0-.08,0h-.1l-.07,0H48l-.05,0h0l0,0h0l0,0h0a0,0,0,0,1,0,0h-.24a0,0,0,0,1,0,0h-.13a0,0,0,0,1,0,0h0s0,0,0,0h0s0,0,0,0h-.13l0,0h-.2l-.05,0s0,0,0,0h-.19l-1.45.49-.07,0a26.76,26.76,0,0,0-4.52,2.11l-.19.11h0a0,0,0,0,0,0,0l-.07,0h0a0,0,0,0,0,0,0h-.07s0,0,0,0H40s0,0,0,0h0a0,0,0,0,0,0,0h0a0,0,0,0,0,0,0h0l0,0h-.06l-.06,0h0l0,0c-.52.33-1,.67-1.51,1h0l-.07.06h0l-.07.06h0s0,0,0,0h0l0,0h-.08s0,0,0,0h-.22s0,0,0,0h0a0,0,0,0,1,0,0h0a0,0,0,0,1,0,0l0,0h0l0,0a0,0,0,0,0,0,0h0a.08.08,0,0,0,0,0h0l-.07.07h0l-.07.06h0l-.28.25-.06,0-.34.3c-.32.29-.64.58-.94.89a24.23,24.23,0,0,0-2.4,2.82q-.39.54-.75,1.08c-.2.29-.39.58-.56.88s-.39.66-.57,1-.37.67-.54,1l0,.05s0,0,0,0v0l0,0h0v0h0v0s0,0,0,0h0a33.66,33.66,0,0,0-1.86,4.63c-.13.41-.25.81-.35,1.2s-.22.78-.31,1.16c0,0,0,0,0,0v0h0v0s0,0,0,0v0s0,0,0,0h0s0,0,0,0h0v0h0v0h0v0c0,.07,0,.14-.27,1.21-.07.33-.13.64-.18,1a35.8,35.8,0,0,0-.59,5,.76.76,0,0,0,0,.15c0,.13,0,.24,0,.33s0,.3,0,.35h0V63.6c-1-.16-2-.37-3-.62l-.48-.13c-.35-.09-.69-.19-1-.3s-.84-.27-1.26-.42l-.11,0h0l-.06,0h0l-.08,0h0a0,0,0,0,1,0,0h-.14l-.08,0,0,0h0l-.1,0-.18-.07-.1,0L20,61.68l-.07,0h-.05s0,0,0,0h-.18l0,0h-.06l-.05,0h-.06l-.05,0h-.05l0,0h-.07a32.15,32.15,0,0,1-3.65-1.87c-.58-.35-1.15-.71-1.7-1.09h-.08l0,0h0a0,0,0,0,0,0,0h-.13l0,0h0l-.06,0L13.38,58l-.69-.51c-1-.76-1.13-.89-1.27-1a31.62,31.62,0,0,1-3.76-3.74q-.31-.36-.6-.72l-.24-.3-.27-.35h0l0,0v0l0,0a0,0,0,0,1,0,0h0s0,0,0,0h0a0,0,0,0,0,0,0h0v0a0,0,0,0,0,0,0h0a0,0,0,0,1,0,0h0s0,0,0,0h0v0h0l0,0,0,0c-.45-.61-.88-1.24-1.28-1.88s-.66-1.08-1-1.63c0-.62,0-1.69.13-3.11,0,0,0-.08,0-.12,0-.27,0-.55.07-.84v-.12l.06-.58,0-.28c0-.41.09-.84.15-1.28l.25-1.74c.24-1.51.55-3.16,1-4.91.16-.66.33-1.34.52-2q.18-.67.39-1.38c.13-.46.28-.93.43-1.4.59-1.81,1.3-3.68,2.13-5.58.19-.45.4-.9.62-1.36s.31-.65.48-1l.14-.28c.17-.33.34-.67.52-1a49.46,49.46,0,0,1,2.56-4.29l.81-1.18h0l0,0h0l0,0,0,0h0l0,0,.05-.07h0l0,0,0,0,0,0h0l0,0,.06-.08,0,0,.06-.08a.21.21,0,0,1,.06-.08l0,0s0,0,0,0h0c.51-.69,1-1.36,1.59-2,.82-1,1.69-2,2.63-2.93l.75-.75,0,0h0a0,0,0,0,1,0,0s0,0,0,0,0,0,0,0,0,0,0,0l0,0,0,0,0,0,0,0,0,0h.06l0,0h0s0,0,0,0a.08.08,0,0,1,0,0s0,0,0,0,0,0,0,0l.13-.12c.91-.85,1.83-1.66,2.79-2.43a.69.69,0,0,1,.13-.11,44.15,44.15,0,0,1,4.27-3l.05,0c.29-.19.58-.37.88-.54l.29-.18.1-.06,0,0,0,0h0l0,0h0l0,0h0l0,0,0,0s0,0,0,0h0l0,0h0s0,0,0,0h.05l0,0h0s0,0,0,0h0a0,0,0,0,0,0,0h.05l0,0h.05s0,0,0,0h0s0,0,0,0h0a0,0,0,0,0,0,0h0a0,0,0,0,0,0,0h0l0,0h.05a0,0,0,0,1,0,0H30s0,0,0,0l0,0h.08s0,0,0,0h.07a0,0,0,0,1,0,0h0s0,0,0,0,0,0,0,0a0,0,0,0,0,0,0h0a0,0,0,0,1,0,0,0,0,0,0,0,0,0h0a0,0,0,0,0,0,0h.07a0,0,0,0,1,0,0h.05s0,0,0,0a0,0,0,0,0,0,0h0a0,0,0,0,1,0,0h.07a0,0,0,0,1,0,0h0a0,0,0,0,1,0,0h.07a0,0,0,0,0,0,0h.15a0,0,0,0,1,0,0h0s0,0,0,0,0,0,0,0a0,0,0,0,0,0,0H31s0,0,0,0h.1l0,0h0s0,0,0,0l0,0h0a0,0,0,0,0,0,0h.13l0,0H32a31.83,31.83,0,0,1,4.28.29h.47a0,0,0,0,1,0,0h.13a0,0,0,0,0,0,0h.3a0,0,0,0,1,0,0h.45l.07,0h.1l.08,0H38l.11,0h.06l.13,0s0,0,0,0h0l.12,0h0l.07,0c.36.07.72.15,1.07.24h0l.15,0h0a0,0,0,0,0,0,0h.06L40,1h.11l.05,0h0a0,0,0,0,1,0,0h.06a0,0,0,0,1,0,0h0a0,0,0,0,1,0,0h0a0,0,0,0,1,0,0h.07a0,0,0,0,0,0,0h.09a0,0,0,0,1,0,0h0s0,0,0,0h.05l.06,0h.06a0,0,0,0,1,0,0l.44.12a31.19,31.19,0,0,1,4.66,1.8q.85.41,1.68.87a6.65,6.65,0,0,1,.58.33l.73.43h0l0,0h0l0,0H49c.39.25.78.5,1.15.76.81.56,1.58,1.14,2.33,1.77s1.32,1.14,1.94,1.76l.26.26.31.31h0a.46.46,0,0,1,.07.07h0l0,0h0l0,0h.1s0,0,0,0h.06s0,0,0,0,0,0,0,0h0s0,0,0,0h0l.1.1c.63.7,1.24,1.42,1.82,2.16A31.52,31.52,0,0,1,59.75,16.05Z"/><path class="cls-3" d="M13.92,54.5v3.91c.55.38,1.12.74,1.7,1.09h1.3v-5Zm.16-10.14c-.14,1.59-.16,2.72-.16,3.25V49.5h3V47.61c0-.38,0-1.45.15-3ZM16,34.23c-.48,1.63-.88,3.32-1.2,5l2.95.56c.3-1.6.68-3.19,1.13-4.73Zm4-9.53a42.63,42.63,0,0,0-2.24,4.66l2.77,1.14a42.57,42.57,0,0,1,2.09-4.35Zm6.16-8.34a36.69,36.69,0,0,0-3.36,4l2.41,1.78a35.43,35.43,0,0,1,3.1-3.66ZM34.29,10A37.16,37.16,0,0,0,30,12.89l1.83,2.38a34.9,34.9,0,0,1,4-2.66Zm9.53-4a46.71,46.71,0,0,0-4.88,1.69l1.15,2.77a40.59,40.59,0,0,1,4.55-1.57Zm6.32-.41c-.37-.26-.76-.51-1.15-.76l-.16,0,.52,3c1-.18,2.06-.34,3.12-.46C51.72,6.77,51,6.19,50.14,5.63Z"/></g></g></svg>