<svg xmlns="http://www.w3.org/2000/svg" viewBox="0 0 64 64"><defs><style>.cls-1{fill:#00a651;}.cls-2{fill:#414042;}.cls-3{fill:#fff;}.cls-4{fill:#fff200;}</style></defs><g id="Layer_2" data-name="Layer 2"><g id="Layer_1-2" data-name="Layer 1"><path class="cls-1" d="M64,32A32,32,0,0,1,32,64a32.65,32.65,0,0,1-5.08-.4,31.85,31.85,0,0,1-11.3-4.1c-.58-.35-1.15-.71-1.7-1.09a32.3,32.3,0,0,1-10-11A32,32,0,0,1,31.42,0H32A32,32,0,0,1,64,32Z"/><path class="cls-2" d="M59.75,16.05v.78c-10.61,0-18.74,2.78-24.17,8.26C27,33.8,26.92,47.16,26.92,47.48V63.6a31.85,31.85,0,0,1-11.3-4.1h-1.7V58.41a32.3,32.3,0,0,1-10-11c0-3.68.81-23.62,15.08-38.22A47.27,47.27,0,0,1,31.42,0H32A32,32,0,0,1,59.75,16.05Z"/><path class="cls-3" d="M13.92,54.5v5h3v-5Zm.16-10.14c-.14,1.59-.16,2.72-.16,3.25V49.5h3V47.61c0-.38,0-1.45.15-3ZM16,34.23c-.48,1.63-.88,3.32-1.2,5l2.95.56c.3-1.6.68-3.19,1.13-4.73Zm4-9.53a42.63,42.63,0,0,0-2.24,4.66l2.77,1.14a42.57,42.57,0,0,1,2.09-4.35Zm6.16-8.34a36.69,36.69,0,0,0-3.36,4l2.41,1.78a35.43,35.43,0,0,1,3.1-3.66ZM34.29,10A37.16,37.16,0,0,0,30,12.89l1.83,2.38a34.9,34.9,0,0,1,4-2.66Zm9.53-4a46.71,46.71,0,0,0-4.88,1.69l1.15,2.77a40.59,40.59,0,0,1,4.55-1.57ZM49,4.87l-.16,0,.52,3c1-.18,2.06-.34,3.12-.46A32.19,32.19,0,0,0,49,4.87Z"/><rect class="cls-4" x="33.31" y="29.39" width="23.19" height="23.19" rx="4.82" transform="translate(42.13 -19.75) rotate(45)"/><path class="cls-2" d="M59.76,38.64,47.24,26.12a3.3,3.3,0,0,0-4.67,0L30,38.64a3.32,3.32,0,0,0-1,2.34,3.29,3.29,0,0,0,1,2.34L42.57,55.84a3.3,3.3,0,0,0,4.67,0L59.76,43.32a3.25,3.25,0,0,0,1-2.34A3.28,3.28,0,0,0,59.76,38.64Zm-.66,3.72v0l-.13.14L46.44,55l-.14.13h0a2.16,2.16,0,0,1-2.75,0h0L43.37,55,30.85,42.52l-.15-.16A2.21,2.21,0,0,1,30.21,41a2.19,2.19,0,0,1,.49-1.37l.15-.16L43.37,26.92a.59.59,0,0,1,.18-.14h0a2.18,2.18,0,0,1,2.69,0h0a.59.59,0,0,1,.18.14L59,39.45l.13.14v0A2.16,2.16,0,0,1,59.1,42.36Z"/><path class="cls-2" d="M42.69,48.91H39.84V45.13a4.53,4.53,0,0,1,4.53-4.52,1.69,1.69,0,0,0,1.68-1.69V36h2.84v3a4.53,4.53,0,0,1-4.52,4.53,1.68,1.68,0,0,0-1.68,1.68Z"/><polygon class="cls-2" points="47.47 30.94 50.36 38.01 47.47 36.33 44.59 38.01 47.47 30.94"/></g></g></svg>