<svg xmlns="http://www.w3.org/2000/svg" viewBox="0 0 64 64"><defs><style>.cls-1{fill:#00a651;}.cls-2{fill:#414042;}.cls-3{fill:#fff;}.cls-4{fill:#ed1c24;}.cls-5{fill:#fff200;}</style></defs><g id="Layer_2" data-name="Layer 2"><g id="Layer_1-2" data-name="Layer 1"><path class="cls-1" d="M64,32A32,32,0,0,1,32,64a32.65,32.65,0,0,1-5.08-.4,31.85,31.85,0,0,1-11.3-4.1c-.58-.35-1.15-.71-1.7-1.09a32.3,32.3,0,0,1-10-11A32,32,0,0,1,31.42,0H32A32,32,0,0,1,64,32Z"/><path class="cls-2" d="M59.75,16.05v.78c-10.61,0-18.74,2.78-24.17,8.26C27,33.8,26.92,47.16,26.92,47.48V63.6a31.85,31.85,0,0,1-11.3-4.1c-.58-.35-1.15-.71-1.7-1.09a32.3,32.3,0,0,1-10-11c0-3.66.8-23.6,15.08-38.22A47.27,47.27,0,0,1,31.42,0H32A32,32,0,0,1,59.75,16.05Z"/><path class="cls-3" d="M49,4.87l-.16,0,.52,3c1-.18,2.06-.34,3.12-.46A32.19,32.19,0,0,0,49,4.87ZM43.82,6a46.71,46.71,0,0,0-4.88,1.69l1.15,2.77a40.59,40.59,0,0,1,4.55-1.57Zm-9.53,4A36,36,0,0,0,30,12.9l1.83,2.37a34.9,34.9,0,0,1,4-2.66ZM26.1,16.36a36.69,36.69,0,0,0-3.36,4l2.41,1.78a35.43,35.43,0,0,1,3.1-3.66ZM19.94,24.7a42.63,42.63,0,0,0-2.24,4.66l2.77,1.14a42.57,42.57,0,0,1,2.09-4.35Zm-4,9.53c-.48,1.63-.88,3.32-1.2,5l2.95.56c.3-1.6.68-3.19,1.13-4.73ZM14.08,44.36c-.14,1.59-.16,2.72-.16,3.25V49.5h3V47.61c0-.38,0-1.45.15-3ZM13.92,54.5v3.91c.55.38,1.12.74,1.7,1.09h1.3v-5Z"/><polygon class="cls-4" points="57.78 46.79 30.06 46.79 43.34 26.24 57.78 46.79"/><path class="cls-5" d="M58.74,47.29H29.14L43.32,25.35ZM31,46.29H56.81L43.36,27.14Z"/><path class="cls-3" d="M41,45H38.85V42.23A3.22,3.22,0,0,1,42,39a1.2,1.2,0,0,0,1.18-1.21V35.6h2.16v2.14A3.21,3.21,0,0,1,42.19,41,1.21,1.21,0,0,0,41,42.23Z"/><polygon class="cls-3" points="44.58 32.24 46.66 37.34 44.58 36.13 42.5 37.34 44.58 32.24"/></g></g></svg>