<svg xmlns="http://www.w3.org/2000/svg" viewBox="0 0 63.92 64"><defs><style>.cls-1{fill:#666766;}.cls-2{fill:#d1d3d4;}.cls-3{fill:#00a651;}.cls-4{fill:#231f20;}.cls-5{fill:#414042;}</style></defs><g id="Layer_2" data-name="Layer 2"><g id="Layer_1-2" data-name="Layer 1"><path class="cls-1" d="M62.88,24.12l-.13,16.26A32,32,0,0,1,54.5,54.62c-.22.22-.44.44-.67.65l-.33.3c-.17.17-.35.32-.53.47a6,6,0,0,1-.47.41c-.33.28-.66.55-1,.81A32,32,0,0,1,12,57.12l-1-.82-.11-.09-.89-.8-.14-.13c-.29-.28-.58-.56-.86-.85s-.83-.87-1.22-1.32c-.23-.26-.45-.52-.67-.79L7,52.16c-.18-.22-.37-.45-.54-.69s-.44-.58-.66-.88-.28-.39-.41-.6c-.29-.42-.57-.84-.83-1.28-.18-.28-.34-.56-.5-.85-.29-.5-.57-1-.83-1.54l-.3-.64a27.09,27.09,0,0,1-1.41-3.49c-.12-.35-.23-.7-.34-1-.27-.9-.49-1.82-.68-2.75C.43,38,.36,37.64.3,37.26a1.62,1.62,0,0,1,0-.2,45.84,45.84,0,0,1-.27-5,45.26,45.26,0,0,1,.33-5.5.43.43,0,0,1,0-.11c.07-.41.15-.81.24-1.21,0-.13.05-.26.08-.39s.13-.54.2-.81.15-.59.24-.88.15-.51.23-.76.15-.51.25-.77.16-.47.24-.69.13-.35.2-.52c.13-.33.26-.66.4-1s.29-.68.45-1A1.3,1.3,0,0,1,3,18.26c.1-.23.21-.46.33-.68.3-.6.63-1.2,1-1.78.11-.19.22-.38.34-.57.28-.46.57-.91.88-1.35.15-.23.31-.46.48-.68s.47-.64.72-.95.49-.62.75-.92c.51-.61,1-1.2,1.6-1.76.28-.29.57-.57.86-.85L10,8.59l.39-.35c.38-.34.77-.68,1.16-1a32,32,0,0,1,40.34-.16c.4.32.79.66,1.18,1,.13.11.26.22.39.35l.33.3c.23.21.45.43.67.65A32.08,32.08,0,0,1,62.88,24.12Z"/><path class="cls-2" d="M30.88,53.14v5h4v-5Zm0-10v5h4v-5Zm0-10v5h4v-5Zm0-10v5h4v-5Zm0-10v5h4v-5Zm0-10v5h4v-5Z"/><path class="cls-3" d="M10.88,8.59V55.41l-.14-.13c-.29-.28-.58-.56-.86-.85-.43-.43-.83-.87-1.22-1.32-.23-.26-.45-.52-.67-.79l-.14-.16c-.18-.22-.37-.45-.54-.69s-.44-.58-.66-.88-.28-.39-.41-.6c-.29-.42-.57-.84-.83-1.28-.18-.28-.34-.56-.5-.85-.29-.5-.57-1-.83-1.54l-.3-.64a27.09,27.09,0,0,1-1.41-3.49c-.12-.35-.23-.7-.34-1-.27-.9-.49-1.82-.68-2.75-.08-.37-.15-.75-.21-1.13a1.62,1.62,0,0,1,0-.2,45.84,45.84,0,0,1-.27-5,45.26,45.26,0,0,1,.33-5.5.43.43,0,0,1,0-.11c.07-.41.15-.81.24-1.21,0-.13.05-.26.08-.39s.13-.54.2-.81.15-.59.24-.88.15-.51.23-.76.15-.51.25-.77.16-.47.24-.69.13-.35.2-.52c.13-.33.26-.66.4-1s.29-.68.45-1a1.3,1.3,0,0,1,.08-.17c.1-.23.21-.46.33-.68.3-.6.63-1.2,1-1.78.11-.19.22-.38.34-.57.28-.46.57-.91.88-1.35.15-.23.31-.46.48-.68s.47-.64.72-.95.49-.62.75-.92c.51-.61,1-1.2,1.6-1.76.28-.29.57-.57.86-.85Z"/><path class="cls-4" d="M10.84,8.14c-.13.21-.26.33,0,.45v.55h1v-1Zm0,3v1h1v-1Zm0,2v1h1v-1Zm0,2v1h1v-1Zm0,3v1h1v-1Zm0,2v1h1v-1Zm0,3v1h1v-1Zm0,2v1h1v-1Zm0,2v1h1v-1Zm0,3v1h1v-1Zm0,2v1h1v-1Zm0,3v1h1v-1Zm0,2v1h1v-1Zm0,2v1h1v-1Zm0,3v1h1v-1Zm0,2v1h1v-1Zm0,3v1h1v-1Zm0,2v1h1v-1Zm0,2v1h1v-1Zm0,3v1h1v-1Zm.89,2,.11.09v-.09Z"/><path class="cls-5" d="M12.88,7.14V57l-1-.82-.11-.09-.89-.8-.14-.13c-.29-.28-.58-.56-.86-.85V9.47c.28-.29.57-.57.86-.85l.14-.13.39-.35c.38-.34.77-.68,1.16-1Z"/><path class="cls-3" d="M63.92,31.89a45.36,45.36,0,0,1-.79,8.49,32,32,0,0,1-8.25,14.24c-.22.22-.44.44-.67.65l-.33.3V8.43l.33.3c.23.21.45.43.67.65a32.08,32.08,0,0,1,8.38,14.74A46,46,0,0,1,63.92,31.89Z"/><path class="cls-4" d="M52.88,10.14v1h1v-1Zm0,3v1h1v-1Zm0,2v1h1v-1Zm0,3v1h1v-1Zm0,2v1h1v-1Zm0,2v1h1v-1Zm0,3v1h1v-1Zm0,2v1h1v-1Zm0,3v1h1v-1Zm0,2v1h1v-1Zm0,2v1h1v-1Zm0,3v1h1v-1Zm0,2v1h1v-1Zm0,3v1h1v-1Zm0,2v1h1v-1Zm0,2v1h1v-1Zm0,3v1h1v-1Zm0,2v1h1v-1Zm0,3v1h1v-1Zm0,2v.41a6,6,0,0,0,.47-.41Zm1-47.71v.71h-1v-1h.64Z"/><path class="cls-5" d="M53.88,8.49a3.4,3.4,0,0,0,.71.56l.29.33V54.74l-.29.33a3.4,3.4,0,0,0-.71.56c-.17.17-.35.32-.53.47a6,6,0,0,1-.47.41c-.33.28-.66.55-1,.81V7.14h.43c.4.32.79.66,1.18,1Z"/></g></g></svg>