<svg xmlns="http://www.w3.org/2000/svg" viewBox="0 0 63.89 64"><defs><style>.cls-1{fill:#666766;}.cls-2{fill:#d1d3d4;}.cls-3{fill:#00a651;}.cls-4{fill:none;}.cls-5{fill:#414042;}.cls-6{fill:#231f20;}.cls-7{fill:#39b54a;}.cls-8{fill:#fff200;}</style></defs><g id="Layer_2" data-name="Layer 2"><g id="Layer_1-2" data-name="Layer 1"><path class="cls-1" d="M63,24.12l-.13,16.26a32,32,0,0,1-8.26,14.24c-.22.22-.44.44-.67.65l-.33.3c-.17.17-.35.32-.53.47a6,6,0,0,1-.47.41c-.33.28-.67.55-1,.81a32,32,0,0,1-39.5-.14L11.9,57c-.29-.22-.57-.45-.85-.69l-.11-.09,0,0,0,0c-.27-.24-.55-.48-.81-.73l-.14-.13,0,0-.8-.79-.2-.21c-.37-.38-.72-.76-1.06-1.15s-.45-.52-.67-.79L7,52.16c-.18-.22-.37-.45-.54-.69s-.44-.58-.66-.88-.28-.39-.41-.6c-.29-.42-.57-.84-.83-1.28-.18-.28-.34-.56-.5-.85-.3-.5-.58-1-.84-1.54l-.3-.64a27.09,27.09,0,0,1-1.41-3.49c-.12-.35-.23-.7-.34-1-.27-.9-.49-1.82-.68-2.75C.43,38,.36,37.64.3,37.26a1.62,1.62,0,0,1,0-.2,45.84,45.84,0,0,1-.27-5,45.26,45.26,0,0,1,.33-5.5.43.43,0,0,1,0-.11c.07-.41.15-.81.24-1.21,0-.13.05-.26.08-.39s.13-.54.2-.81.15-.59.24-.88.15-.51.23-.76.15-.51.25-.77.16-.47.24-.69.13-.35.2-.52c.13-.33.26-.66.4-1s.29-.68.45-1A1.3,1.3,0,0,1,3,18.26c.1-.23.21-.46.33-.68.3-.6.63-1.2,1-1.78.11-.19.22-.38.34-.57.28-.46.57-.91.88-1.35.15-.23.31-.46.48-.68s.47-.64.72-.95.49-.62.75-.92q.69-.83,1.44-1.59l.16-.17c.27-.28.56-.56.84-.83l0,0,.14-.13.39-.35.11-.1,1-.9.13-.1A32.05,32.05,0,0,1,52,7.08c.41.32.8.66,1.19,1,.13.11.26.22.39.35l.33.3c.23.21.45.43.67.65A32.1,32.1,0,0,1,63,24.12Z"/><path class="cls-2" d="M30.92,53.14v5h4v-5Zm0-10v5h4v-5Zm0-10v5h4v-5Zm0-10v5h4v-5Zm0-10v5h4v-5Zm0-10v5h4v-5Z"/><path class="cls-3" d="M9.89,55.26V8.74c-.28.27-.57.55-.84.83l-.16.17q-.75.76-1.44,1.59c-.26.3-.51.61-.75.92s-.49.63-.72.95-.33.45-.48.68c-.31.44-.6.89-.88,1.35-.12.19-.23.38-.34.57-.36.58-.69,1.18-1,1.78-.12.22-.23.45-.33.68a1.3,1.3,0,0,0-.08.17c-.16.33-.31.67-.45,1s-.27.65-.4,1c-.07.17-.14.35-.2.52s-.17.46-.24.69-.18.52-.25.77-.16.5-.23.76-.17.58-.24.88-.14.54-.2.81-.05.26-.08.39c-.09.4-.17.8-.24,1.21a.43.43,0,0,0,0,.11A45.26,45.26,0,0,0,0,32.06a45.84,45.84,0,0,0,.27,5,1.62,1.62,0,0,0,0,.2c.06.38.13.76.21,1.13.19.93.41,1.85.68,2.75.11.35.22.7.34,1a27.09,27.09,0,0,0,1.41,3.49l.3.64c.26.52.54,1,.84,1.54.16.29.32.57.5.85.26.44.54.86.83,1.28.13.21.27.4.41.6s.43.59.66.88.36.47.54.69l.14.16c.22.27.44.53.67.79s.69.77,1.06,1.15l.2.21Z"/><path class="cls-4" d="M10.55,8.14l-.11.1-.39.35-.14.13,0,0v.4h1v-1Zm-.66,3v1h1v-1Zm0,2v1h1v-1Zm0,2v1h1v-1Zm0,3v1h1v-1Zm0,2v1h1v-1Zm0,3v1h1v-1Zm0,2v1h1v-1Zm0,2v1h1v-1Zm0,3v1h1v-1Zm0,2v1h1v-1Zm0,3v1h1v-1Zm0,2v1h1v-1Zm0,2v1h1v-1Zm0,3v1h1v-1Zm0,2v1h1v-1Zm0,3v1h1v-1Zm0,2v1h1v-1Zm0,2v1h1v-1Zm0,3v1h1v-1Zm1,2,0,0"/><path class="cls-5" d="M11.9,57V7.14h-.17l-.13.1-1,.9-.11.1-.39.35-.14.13,0,0c-.28.27-.57.55-.84.83l-.16.17V54.26l.2.21.8.79,0,0,.14.13c.26.25.54.49.81.73l0,0Z"/><path class="cls-3" d="M63.89,31.9a44.58,44.58,0,0,1-.77,8.33,31.41,31.41,0,0,1-8.12,14c-.21.22-.43.43-.66.64l-.32.29V8.85c.11.09.22.2.32.3s.45.42.66.64a31.42,31.42,0,0,1,8.24,14.47A44.5,44.5,0,0,1,63.89,31.9Z"/><path class="cls-6" d="M53,10.53v1h1v-1Zm0,3v1h1v-1Zm0,2v1h1v-1Zm0,2.94v1h1v-1Zm0,2v1h1v-1Zm0,2v1h1v-1Zm0,2.95v1h1v-1Zm0,2v1h1v-1Zm0,2.95v1h1v-1Zm0,2v1h1v-1Zm0,2v1h1v-1Zm0,2.94v1h1v-1Zm0,2v1h1V39ZM53,42v1h1V42Zm0,2v1h1v-1Zm0,2v1h1v-1Zm0,3v1h1v-1Zm0,2v1h1v-1Zm0,3v1h1v-1Zm0,2v.41c.15-.13.31-.26.46-.41ZM54,8.85v.7H53v-1h.63Z"/><path class="cls-5" d="M54,8.91a2.87,2.87,0,0,0,.7.56l.28.32V54.34l-.28.32a3.06,3.06,0,0,0-.7.55,5.53,5.53,0,0,1-.52.46c-.15.15-.31.28-.46.41-.33.27-.65.54-1,.79V7.59h.43c.39.31.77.65,1.16,1Z"/><ellipse class="cls-7" cx="32.42" cy="46.64" rx="8.51" ry="8.5"/><polygon class="cls-8" points="30.99 50.64 27.7 46.78 29.22 45.53 31.2 47.8 36.99 42.56 38.32 44.02 30.99 50.64"/></g></g></svg>