<svg xmlns="http://www.w3.org/2000/svg" xmlns:xlink="http://www.w3.org/1999/xlink" viewBox="0 0 63.61 63.88"><defs><style>.cls-1{fill:url(#linear-gradient);}.cls-2{fill:url(#linear-gradient-2);}.cls-3{fill:#d1d3d4;}.cls-4{fill:#00a651;}.cls-5{fill:#231f20;}.cls-6{fill:#414042;}.cls-7{fill:#39b54a;}.cls-8{fill:none;stroke:#fff200;stroke-miterlimit:10;stroke-width:2px;}</style><linearGradient id="linear-gradient" x1="31.6" y1="64" x2="31.6" y2="0.12" gradientUnits="userSpaceOnUse"><stop offset="0" stop-color="#464646"/><stop offset="1" stop-color="#1b1b1b"/></linearGradient><linearGradient id="linear-gradient-2" x1="32.23" y1="63.88" x2="32.23" gradientUnits="userSpaceOnUse"><stop offset="0" stop-color="#464646"/><stop offset="1" stop-color="#f6f6f6"/></linearGradient></defs><g id="Layer_2" data-name="Layer 2"><g id="Layer_1-2" data-name="Layer 1"><path class="cls-1" d="M62.8,24.2l-.13,16.23a31.94,31.94,0,0,1-8.19,14.21c-.21.22-.43.44-.66.65l-.33.3c-.17.17-.35.32-.52.47s-.31.27-.47.4q-.49.42-1,.81a31.6,31.6,0,0,1-39.17-.14c-.34-.27-.66-.54-1-.82l-.11-.09c-.3-.25-.6-.52-.88-.79l-.14-.13c-.29-.28-.58-.56-.86-.85s-.82-.87-1.21-1.32c-.23-.26-.44-.52-.66-.79l-.14-.16c-.18-.22-.37-.45-.54-.69s-.43-.58-.65-.87-.28-.39-.41-.6c-.29-.42-.57-.84-.82-1.28-.18-.28-.34-.56-.5-.85-.29-.5-.57-1-.82-1.54l-.3-.64a26.34,26.34,0,0,1-1.4-3.48c-.12-.35-.23-.7-.34-1A27.38,27.38,0,0,1,.9,38.44c-.08-.37-.15-.75-.21-1.13a1.62,1.62,0,0,1,0-.2,45.66,45.66,0,0,1-.27-5,45.09,45.09,0,0,1,.33-5.49.43.43,0,0,1,0-.11c.07-.41.15-.81.24-1.21,0-.13.05-.26.07-.39s.13-.53.2-.8.15-.59.24-.88.15-.51.23-.76.15-.51.25-.77.16-.47.24-.69l.19-.52c.13-.33.26-.66.4-1s.29-.67.45-1a1.3,1.3,0,0,1,.08-.17c.1-.23.21-.46.33-.68.29-.6.62-1.2,1-1.78.11-.19.22-.38.34-.57.27-.46.56-.91.87-1.34.15-.23.31-.46.48-.68s.46-.64.71-1,.49-.62.74-.92c.51-.61,1-1.2,1.59-1.76.28-.29.57-.57.86-.84l.14-.13.38-.35c.38-.34.77-.68,1.15-1a31.6,31.6,0,0,1,40-.16c.4.32.79.66,1.17,1,.13.11.26.22.39.35l.33.3c.23.2.45.42.66.64A32.14,32.14,0,0,1,62.8,24.2Z" transform="translate(-0.39 -0.12)"/><path class="cls-2" d="M48.14,59.7l-.06,0h0c-.11-.18,3.83-6.5,9.4-15.4,3-4.83,5.88-9.4,5.92-9.6-.34-.2-14.57,8.22-26,15-10.09,6-18.81,11.13-19.07,11.06h0s-.05-.09,6.46-5.45c3.92-3.22,9.1-7.45,14.59-11.93C50.5,34.27,63.15,24,63.33,23.57,63,23.5,52.39,29.79,41.17,36.45c-14.53,8.62-31,18.4-31.66,18.22h0c-.08-.13.75-1,8.71-7.5C23.47,42.89,30.42,37.37,37.14,32c11.3-9,22-17.46,21.89-17.78-.31-.11-14.07,8-27.38,15.83-8.23,4.84-16.2,9.53-21.57,12.63a74.66,74.66,0,0,1-6.7,3.69h0c-.08-.13,1-1.08,9.79-7.39C19,34.8,26.57,29.49,33.88,24.35c10.73-7.54,20.87-14.67,21-15-.51,0-16.19,9.22-30,17.33C12.21,34.06,1.26,40.48,1.05,40.42H1c0-.07.52-.77,5-5.51,3.05-3.25,7.15-7.57,11.49-12.13C27.23,12.53,38.26.92,38.15.59,37.88.39,26,7.41,16.5,13.05,8.62,17.72,1.81,21.76,1.6,21.7h0c-.06-.1,2.28-2.85,7.24-8.69C12.34,8.89,16,4.64,16.15,4.26l-.38.22-.41.24h0s0,0,0,0l.4-.24c.41-.24.41-.24.42-.23h0c.06.11-2.73,3.4-7.33,8.8-3.51,4.12-7.14,8.38-7.24,8.65C2,21.63,9,17.45,16.49,13,26.45,7.13,37.73.45,38.15.56h0C38.33.85,29.71,10,17.52,22.8,9.12,31.64,1.19,40,1.06,40.4c.45-.1,11.81-6.75,23.82-13.8C39.5,18,54.61,9.19,54.94,9.28h0c0,.08-.7.69-6.3,4.68-3.87,2.76-9.16,6.48-14.76,10.41C26.59,29.51,19,34.82,13.17,39,10,41.29,7.66,43,6,44.2,3.67,46,3.36,46.31,3.39,46.36c.32.12,14.52-8.24,28.25-16.32C45.55,21.85,58.69,14.12,59,14.21h0c0,.09-.66.81-6.61,5.61-4.06,3.28-9.52,7.62-15.29,12.22-6.72,5.34-13.67,10.86-18.94,15.13C12.33,52,9.4,54.46,9.51,54.64h0c.65.17,17.11-9.6,31.64-18.22,11.72-7,21.85-13,22.18-12.89h0s.07.12-7.55,6.39c-4.54,3.74-10.59,8.68-16.45,13.46-10.2,8.32-20.74,16.93-21,17.34.44,0,9.48-5.4,19-11.06,12.56-7.43,25.55-15.11,26-15l0,0c0,.07-1.77,3-5.92,9.62s-9.32,14.89-9.4,15.36l.2-.12.34-.19h0v0h0l-.32.19ZM15.37,4.7Z" transform="translate(-0.39 -0.12)"/><path class="cls-3" d="M30.19,53v5h4V53Zm0-10v5h4v-5Zm0-10v5h4v-5Zm0-10v5h4v-5Zm0-10v5h4v-5Zm0-10v5h4v-5Z" transform="translate(-0.39 -0.12)"/><path class="cls-4" d="M10.36,8.57V55.3l-.14-.13c-.28-.27-.57-.55-.85-.84S8.55,53.46,8.16,53c-.23-.26-.45-.52-.67-.79l-.14-.16c-.17-.22-.36-.45-.53-.69s-.44-.58-.66-.88-.27-.39-.4-.6c-.29-.41-.57-.83-.83-1.27-.18-.28-.33-.56-.49-.85-.29-.5-.57-1-.83-1.54-.1-.21-.2-.42-.29-.64a25,25,0,0,1-1.4-3.48c-.12-.35-.23-.7-.34-1-.27-.9-.49-1.81-.68-2.74C.82,38,.75,37.57.69,37.19a1.62,1.62,0,0,1,0-.2A48.31,48.31,0,0,1,.4,32a47.21,47.21,0,0,1,.32-5.49.43.43,0,0,1,0-.11c.07-.41.15-.81.24-1.21,0-.13.05-.26.08-.39s.13-.54.2-.81.15-.58.24-.87.15-.51.23-.76.15-.51.25-.77.15-.47.23-.69.13-.35.2-.52c.13-.33.26-.66.4-1s.29-.68.45-1c0-.06.05-.1.07-.16.1-.23.21-.46.33-.68.3-.6.63-1.2,1-1.78q.15-.29.33-.57c.28-.46.57-.91.88-1.35.15-.23.3-.46.47-.68s.47-.63.72-.94.48-.62.74-.92c.51-.61,1-1.2,1.59-1.76l.85-.85Z" transform="translate(-0.39 -0.12)"/><path class="cls-5" d="M10.82,8.12a1.24,1.24,0,0,1-.46.45v.55h1v-1Zm-.46,3v1h1v-1Zm0,2v1h1v-1Zm0,2v1h1v-1Zm0,3v1h1v-1Zm0,2v1h1v-1Zm0,3v1h1v-1Zm0,2v1h1v-1Zm0,2v1h1v-1Zm0,3v1h1v-1Zm0,2v1h1v-1Zm0,3v1h1v-1Zm0,2v1h1v-1Zm0,2v1h1v-1Zm0,3v1h1v-1Zm0,2v1h1v-1Zm0,3v1h1v-1Zm0,2v1h1v-1Zm0,2v1h1V51Zm0,3v1h1V54Zm.89,2,.1.09V56Z" transform="translate(-0.39 -0.12)"/><path class="cls-6" d="M12.35,7.13V56.91l-1-.82-.1-.09-.89-.8-.14-.13c-.28-.27-.57-.55-.85-.84V9.45l.85-.85.14-.13.39-.35c.38-.33.76-.67,1.15-1Z" transform="translate(-0.39 -0.12)"/><path class="cls-4" d="M64,31.83a46,46,0,0,1-.78,8.47A32.07,32.07,0,0,1,55,54.52c-.22.22-.44.44-.67.64l-.33.3v-47l.33.3c.23.21.45.43.67.65a32,32,0,0,1,8.31,14.71A45.91,45.91,0,0,1,64,31.83Z" transform="translate(-0.39 -0.12)"/><path class="cls-5" d="M53,10.12v1h1v-1Zm0,3v1h1v-1Zm0,2v1h1v-1Zm0,3v1h1v-1Zm0,2v1h1v-1Zm0,2v1h1v-1Zm0,3v1h1v-1Zm0,2v1h1v-1Zm0,3v1h1v-1Zm0,2v1h1v-1Zm0,2v1h1v-1Zm0,3v1h1v-1Zm0,2v1h1v-1Zm0,3v1h1v-1Zm0,2v1h1v-1Zm0,2v1h1v-1Zm0,3v1h1v-1Zm0,2v1h1V51Zm0,3v1h1V54Zm0,2v.41a6,6,0,0,0,.47-.41ZM54,8.41v.71H53v-1h.14Z" transform="translate(-0.39 -0.12)"/><path class="cls-6" d="M54,8.47c.24.2.48.49.71.56l.29.33V54.64l-.29.32a3.4,3.4,0,0,0-.71.56,5.8,5.8,0,0,1-.52.47,6,6,0,0,1-.47.41c-.33.28-.65.55-1,.81V7.13h.43l1.17,1Z" transform="translate(-0.39 -0.12)"/><ellipse class="cls-7" cx="32.3" cy="46.43" rx="8.44" ry="8.48"/><line class="cls-8" x1="27.84" y1="45.93" x2="36.77" y2="45.93"/></g></g></svg>