<svg width="320" height="173" viewBox="0 0 320 173" fill="none" xmlns="http://www.w3.org/2000/svg">
<rect x="1.5" y="1.5" width="317" height="170" fill="#003368" stroke="white" stroke-width="3"/>
<g filter="url(#filter0_d)">
<path d="M94.4609 81.5391H160C157.605 46.4351 129.565 18.3928 94.4609 16V81.5391Z" fill="#618AB4"/>
<path d="M141.463 134.247C152.035 122.782 158.871 107.816 159.998 91.2759H98.492L141.463 134.247Z" fill="#9FAFBF"/>
<path d="M84.7241 91.2759V16C48.0111 18.5024 19 49.0568 19 86.4075C19 125.394 50.606 157 89.5925 157C106.608 157 122.201 150.966 134.385 140.937L84.7241 91.2759Z" fill="#0052A7"/>
</g>
<path d="M175.614 64.8452C175.614 62.3716 175.999 60.5648 176.768 59.4248C177.537 58.2793 178.71 57.7065 180.288 57.7065C180.537 57.7065 180.786 57.7231 181.035 57.7563C181.284 57.784 181.472 57.8145 181.599 57.8477V59.7153C181.217 59.6268 180.841 59.5825 180.47 59.5825C179.839 59.5825 179.322 59.7209 178.918 59.9976C178.514 60.2743 178.207 60.6893 177.997 61.2427C177.786 61.7905 177.659 62.5625 177.615 63.5586H177.706C177.9 63.0993 178.165 62.7534 178.503 62.521C178.84 62.283 179.231 62.1641 179.673 62.1641C180.487 62.1641 181.12 62.4961 181.574 63.1602C182.028 63.8187 182.255 64.7622 182.255 65.9907C182.255 67.2746 181.956 68.2928 181.358 69.0454C180.761 69.7925 179.95 70.166 178.926 70.166C177.842 70.166 177.017 69.7178 176.453 68.8213C175.894 67.9248 175.614 66.5994 175.614 64.8452ZM178.943 68.2651C179.275 68.2651 179.541 68.0825 179.74 67.7173C179.944 67.3521 180.047 66.7821 180.047 66.0073C180.047 65.382 179.956 64.8895 179.773 64.5298C179.596 64.1646 179.325 63.9819 178.959 63.9819C178.633 63.9819 178.367 64.1507 178.163 64.4883C177.958 64.8258 177.855 65.252 177.855 65.7666C177.855 66.5745 177.95 67.1943 178.138 67.626C178.331 68.0521 178.6 68.2651 178.943 68.2651ZM188.92 70H186.696V62.8779C186.696 62.1032 186.735 61.2122 186.812 60.2051C186.773 60.2604 186.629 60.4292 186.38 60.7114C186.137 60.9937 185.658 61.5 184.944 62.2305L183.683 60.8525L186.912 57.8643H188.92V70ZM193.029 61.5C193.029 62.2692 193.079 62.8309 193.179 63.1851C193.278 63.5337 193.444 63.708 193.677 63.708C193.909 63.708 194.078 63.5337 194.183 63.1851C194.288 62.8309 194.341 62.2692 194.341 61.5C194.341 60.7308 194.285 60.1719 194.175 59.8232C194.07 59.4691 193.904 59.292 193.677 59.292C193.444 59.292 193.278 59.4691 193.179 59.8232C193.079 60.1719 193.029 60.7308 193.029 61.5ZM196.109 61.4834C196.109 62.734 195.899 63.6859 195.478 64.3389C195.063 64.9863 194.457 65.3101 193.66 65.3101C192.836 65.3101 192.23 64.9919 191.842 64.3555C191.455 63.7191 191.261 62.7728 191.261 61.5166C191.261 58.9655 192.061 57.6899 193.66 57.6899C195.293 57.6899 196.109 58.9544 196.109 61.4834ZM200.035 66.3477C200.035 67.1169 200.085 67.6785 200.185 68.0327C200.284 68.3813 200.45 68.5557 200.683 68.5557C200.915 68.5557 201.084 68.3813 201.189 68.0327C201.294 67.6785 201.347 67.1169 201.347 66.3477C201.347 65.5785 201.291 65.0195 201.181 64.6709C201.076 64.3223 200.91 64.1479 200.683 64.1479C200.456 64.1479 200.29 64.3223 200.185 64.6709C200.085 65.0195 200.035 65.5785 200.035 66.3477ZM203.115 66.3311C203.115 67.5817 202.904 68.5308 202.484 69.1782C202.063 69.8257 201.457 70.1494 200.666 70.1494C199.836 70.1494 199.227 69.834 198.84 69.2031C198.458 68.5667 198.267 67.6204 198.267 66.3643C198.267 65.1247 198.464 64.1784 198.856 63.5254C199.255 62.8669 199.858 62.5376 200.666 62.5376C202.299 62.5376 203.115 63.8021 203.115 66.3311ZM200.55 57.8643L195.536 70H193.818L198.815 57.8643H200.55ZM215.524 61.5996C215.524 62.889 215.198 63.8796 214.545 64.5713C213.897 65.2575 212.959 65.6006 211.731 65.6006H211.167V70H208.909V57.8643H211.988C214.346 57.8643 215.524 59.1094 215.524 61.5996ZM211.167 63.6416H211.598C212.152 63.6416 212.564 63.4894 212.835 63.1851C213.106 62.8807 213.242 62.3826 213.242 61.6909C213.242 61.0545 213.117 60.5841 212.868 60.2798C212.619 59.9699 212.235 59.8149 211.714 59.8149H211.167V63.6416ZM220.339 70.166C219.182 70.166 218.269 69.7565 217.6 68.9375C216.936 68.113 216.604 66.9481 216.604 65.4429C216.604 63.9155 216.905 62.723 217.508 61.8652C218.111 61.0075 218.953 60.5786 220.032 60.5786C221.039 60.5786 221.833 60.9466 222.414 61.6826C222.995 62.4131 223.286 63.4396 223.286 64.7622V65.9409H218.845C218.861 66.7655 219.03 67.3797 219.351 67.7837C219.672 68.1821 220.115 68.3813 220.679 68.3813C221.399 68.3813 222.135 68.1572 222.887 67.709V69.5269C222.179 69.953 221.329 70.166 220.339 70.166ZM220.015 62.2803C219.7 62.2803 219.44 62.4491 219.235 62.7866C219.03 63.1187 218.911 63.6361 218.878 64.3389H221.119C221.108 63.6637 221.006 63.1519 220.812 62.8032C220.618 62.4546 220.353 62.2803 220.015 62.2803ZM229.71 67.2939C229.71 68.196 229.445 68.9015 228.914 69.4106C228.388 69.9142 227.61 70.166 226.581 70.166C225.668 70.166 224.913 69.9862 224.315 69.6265V67.709C224.619 67.9193 224.973 68.0936 225.377 68.2319C225.787 68.3703 226.147 68.4395 226.457 68.4395C226.8 68.4395 227.06 68.3564 227.237 68.1904C227.419 68.0189 227.511 67.7948 227.511 67.5181C227.511 67.2358 227.417 66.9896 227.229 66.7793C227.04 66.569 226.694 66.3117 226.191 66.0073C225.521 65.6089 225.04 65.1855 224.747 64.7373C224.459 64.2835 224.315 63.7495 224.315 63.1353C224.315 62.3494 224.583 61.7269 225.12 61.2676C225.662 60.8083 226.404 60.5786 227.345 60.5786C228.164 60.5786 228.936 60.7944 229.661 61.2261L228.938 62.8115C228.346 62.4906 227.826 62.3301 227.378 62.3301C227.096 62.3301 226.883 62.4048 226.739 62.5542C226.6 62.7036 226.531 62.8862 226.531 63.1021C226.531 63.3511 226.617 63.5724 226.789 63.7661C226.966 63.9598 227.292 64.2005 227.768 64.4883C228.344 64.8369 228.748 65.133 228.98 65.3765C229.212 65.62 229.392 65.8966 229.52 66.2065C229.647 66.5164 229.71 66.8789 229.71 67.2939ZM233.537 70.166C232.674 70.166 231.999 69.7454 231.512 68.9043C231.025 68.0632 230.781 66.8927 230.781 65.3931C230.781 63.8823 231.019 62.7036 231.495 61.8569C231.977 61.0047 232.638 60.5786 233.479 60.5786C233.911 60.5786 234.284 60.6838 234.6 60.894C234.915 61.1043 235.2 61.453 235.455 61.9399H235.571L235.812 60.7529H237.679V74.084H235.471V70.1909C235.471 69.9917 235.504 69.5269 235.571 68.7964H235.488C235.255 69.2723 234.979 69.6209 234.658 69.8423C234.337 70.0581 233.963 70.166 233.537 70.166ZM234.209 68.3149C234.647 68.3149 234.959 68.1157 235.147 67.7173C235.341 67.3133 235.444 66.6465 235.455 65.7168V65.4097C235.455 64.3914 235.358 63.6499 235.164 63.1851C234.97 62.7202 234.652 62.4878 234.209 62.4878C233.44 62.4878 233.056 63.4673 233.056 65.4263C233.056 66.4058 233.147 67.1335 233.33 67.6094C233.518 68.0798 233.811 68.3149 234.209 68.3149ZM244.536 70L244.262 68.813H244.146C243.941 69.2336 243.647 69.5656 243.266 69.8091C242.889 70.047 242.458 70.166 241.971 70.166C241.141 70.166 240.513 69.8838 240.086 69.3193C239.66 68.7549 239.447 67.911 239.447 66.7876V60.7529H241.68V66.2563C241.68 66.9315 241.76 67.4406 241.921 67.7837C242.081 68.1268 242.341 68.2983 242.701 68.2983C243.177 68.2983 243.523 68.0604 243.739 67.5845C243.96 67.1086 244.071 66.3089 244.071 65.1855V60.7529H246.304V70H244.536ZM250.379 70H248.171V60.7529H250.379V70ZM248.08 58.3374C248.08 57.9722 248.185 57.6844 248.396 57.4741C248.611 57.2583 248.91 57.1504 249.292 57.1504C249.652 57.1504 249.939 57.2583 250.155 57.4741C250.371 57.6844 250.479 57.9722 250.479 58.3374C250.479 58.7137 250.368 59.007 250.147 59.2173C249.926 59.422 249.641 59.5244 249.292 59.5244C248.927 59.5244 248.633 59.422 248.412 59.2173C248.191 59.007 248.08 58.7137 248.08 58.3374ZM257.236 67.2939C257.236 68.196 256.97 68.9015 256.439 69.4106C255.913 69.9142 255.136 70.166 254.106 70.166C253.193 70.166 252.438 69.9862 251.84 69.6265V67.709C252.145 67.9193 252.499 68.0936 252.903 68.2319C253.312 68.3703 253.672 68.4395 253.982 68.4395C254.325 68.4395 254.585 68.3564 254.762 68.1904C254.945 68.0189 255.036 67.7948 255.036 67.5181C255.036 67.2358 254.942 66.9896 254.754 66.7793C254.566 66.569 254.22 66.3117 253.716 66.0073C253.047 65.6089 252.565 65.1855 252.272 64.7373C251.984 64.2835 251.84 63.7495 251.84 63.1353C251.84 62.3494 252.109 61.7269 252.646 61.2676C253.188 60.8083 253.929 60.5786 254.87 60.5786C255.689 60.5786 256.461 60.7944 257.186 61.2261L256.464 62.8115C255.872 62.4906 255.352 62.3301 254.903 62.3301C254.621 62.3301 254.408 62.4048 254.264 62.5542C254.126 62.7036 254.057 62.8862 254.057 63.1021C254.057 63.3511 254.142 63.5724 254.314 63.7661C254.491 63.9598 254.818 64.2005 255.293 64.4883C255.869 64.8369 256.273 65.133 256.505 65.3765C256.738 65.62 256.918 65.8966 257.045 66.2065C257.172 66.5164 257.236 66.8789 257.236 67.2939ZM263.163 70L262.723 68.7383H262.673C262.346 69.2806 262.009 69.6541 261.66 69.8589C261.312 70.0636 260.872 70.166 260.34 70.166C259.66 70.166 259.123 69.9115 258.73 69.4023C258.343 68.8932 258.149 68.1849 258.149 67.2773C258.149 66.3034 258.415 65.5812 258.946 65.1108C259.483 64.6349 260.282 64.3721 261.345 64.3223L262.573 64.2725V63.6084C262.573 62.7451 262.2 62.3135 261.453 62.3135C260.899 62.3135 260.263 62.5293 259.543 62.9609L258.78 61.4336C259.698 60.8525 260.697 60.562 261.776 60.562C262.756 60.562 263.5 60.8442 264.009 61.4087C264.524 61.9676 264.781 62.7617 264.781 63.791V70H263.163ZM261.245 68.4395C261.649 68.4395 261.97 68.2596 262.208 67.8999C262.451 67.5347 262.573 67.0505 262.573 66.4473V65.667L261.893 65.7002C261.389 65.7279 261.018 65.8717 260.78 66.1318C260.548 66.3919 260.432 66.7793 260.432 67.2939C260.432 68.0576 260.703 68.4395 261.245 68.4395ZM268.998 70.166C268.146 70.166 267.473 69.7454 266.981 68.9043C266.488 68.0632 266.242 66.8927 266.242 65.3931C266.242 63.8879 266.483 62.7091 266.964 61.8569C267.446 61.0047 268.11 60.5786 268.957 60.5786C269.377 60.5786 269.74 60.6838 270.044 60.894C270.354 61.0988 270.639 61.4474 270.899 61.9399H271.032C270.965 61.0988 270.932 60.5094 270.932 60.1719V57.084H273.14V70H271.497L271.123 68.7964H271.048C270.578 69.7095 269.895 70.166 268.998 70.166ZM269.712 68.2983C270.121 68.2983 270.42 68.113 270.608 67.7422C270.797 67.3659 270.899 66.6852 270.916 65.7002V65.4097C270.916 64.3361 270.819 63.5807 270.625 63.1436C270.437 62.7064 270.124 62.4878 269.687 62.4878C269.278 62.4878 268.979 62.7396 268.791 63.2432C268.608 63.7412 268.517 64.4689 268.517 65.4263C268.517 66.3836 268.611 67.103 268.799 67.5845C268.987 68.0604 269.291 68.2983 269.712 68.2983ZM281.848 65.3599C281.848 66.8761 281.527 68.0576 280.885 68.9043C280.243 69.7454 279.363 70.166 278.245 70.166C277.537 70.166 276.911 69.9723 276.369 69.585C275.827 69.1976 275.409 68.6414 275.116 67.9165C274.822 67.186 274.676 66.3338 274.676 65.3599C274.676 63.8602 274.994 62.6898 275.63 61.8486C276.267 61.002 277.149 60.5786 278.278 60.5786C279.368 60.5786 280.235 61.0103 280.876 61.8735C281.524 62.7313 281.848 63.8934 281.848 65.3599ZM276.934 65.3599C276.934 66.3228 277.039 67.0505 277.249 67.543C277.459 68.0355 277.797 68.2817 278.262 68.2817C279.147 68.2817 279.59 67.3078 279.59 65.3599C279.59 64.3914 279.482 63.6693 279.266 63.1934C279.056 62.7119 278.721 62.4712 278.262 62.4712C277.797 62.4712 277.459 62.7119 277.249 63.1934C277.039 63.6693 276.934 64.3914 276.934 65.3599ZM288.364 67.2939C288.364 68.196 288.098 68.9015 287.567 69.4106C287.041 69.9142 286.264 70.166 285.234 70.166C284.321 70.166 283.566 69.9862 282.968 69.6265V67.709C283.273 67.9193 283.627 68.0936 284.031 68.2319C284.44 68.3703 284.8 68.4395 285.11 68.4395C285.453 68.4395 285.713 68.3564 285.89 68.1904C286.073 68.0189 286.164 67.7948 286.164 67.5181C286.164 67.2358 286.07 66.9896 285.882 66.7793C285.694 66.569 285.348 66.3117 284.844 66.0073C284.175 65.6089 283.693 65.1855 283.4 64.7373C283.112 64.2835 282.968 63.7495 282.968 63.1353C282.968 62.3494 283.237 61.7269 283.773 61.2676C284.316 60.8083 285.057 60.5786 285.998 60.5786C286.817 60.5786 287.589 60.7944 288.314 61.2261L287.592 62.8115C287 62.4906 286.479 62.3301 286.031 62.3301C285.749 62.3301 285.536 62.4048 285.392 62.5542C285.254 62.7036 285.185 62.8862 285.185 63.1021C285.185 63.3511 285.27 63.5724 285.442 63.7661C285.619 63.9598 285.945 64.2005 286.421 64.4883C286.997 64.8369 287.401 65.133 287.633 65.3765C287.866 65.62 288.046 65.8966 288.173 66.2065C288.3 66.5164 288.364 66.8789 288.364 67.2939ZM182.122 93H175.614V91.3149L177.772 88.2603C178.365 87.4191 178.771 86.7965 178.993 86.3926C179.214 85.9831 179.377 85.5929 179.482 85.2222C179.588 84.8459 179.64 84.4585 179.64 84.0601C179.64 83.5952 179.535 83.2466 179.325 83.0142C179.12 82.7817 178.852 82.6655 178.52 82.6655C178.226 82.6655 177.952 82.743 177.698 82.8979C177.443 83.0529 177.133 83.3324 176.768 83.7363L175.506 82.4082C176.087 81.7497 176.627 81.2987 177.125 81.0552C177.623 80.8117 178.163 80.6899 178.744 80.6899C179.723 80.6899 180.487 80.9777 181.035 81.5532C181.588 82.1287 181.865 82.9284 181.865 83.9521C181.865 84.417 181.815 84.8569 181.715 85.272C181.616 85.687 181.464 86.1048 181.259 86.5254C181.06 86.9404 180.808 87.3748 180.503 87.8286C180.199 88.2769 179.413 89.3089 178.146 90.9248V90.9912H182.122V93ZM187.02 85.4048C187.933 85.4048 188.658 85.723 189.194 86.3594C189.737 86.9958 190.008 87.8674 190.008 88.9741C190.008 90.2967 189.67 91.326 188.995 92.062C188.326 92.798 187.393 93.166 186.198 93.166C185.135 93.166 184.275 92.964 183.616 92.5601V90.4517C183.898 90.6564 184.261 90.839 184.704 90.9995C185.152 91.1545 185.567 91.2319 185.949 91.2319C187.139 91.2319 187.733 90.5402 187.733 89.1567C187.733 87.8674 187.155 87.2227 185.999 87.2227C185.539 87.2227 185.052 87.3112 184.538 87.4883L183.807 86.9487L184.181 80.8643H189.36V82.8813H186.115L185.949 85.5044C186.259 85.438 186.616 85.4048 187.02 85.4048ZM193.029 84.5C193.029 85.2692 193.079 85.8309 193.179 86.1851C193.278 86.5337 193.444 86.708 193.677 86.708C193.909 86.708 194.078 86.5337 194.183 86.1851C194.288 85.8309 194.341 85.2692 194.341 84.5C194.341 83.7308 194.285 83.1719 194.175 82.8232C194.07 82.4691 193.904 82.292 193.677 82.292C193.444 82.292 193.278 82.4691 193.179 82.8232C193.079 83.1719 193.029 83.7308 193.029 84.5ZM196.109 84.4834C196.109 85.734 195.899 86.6859 195.478 87.3389C195.063 87.9863 194.457 88.3101 193.66 88.3101C192.836 88.3101 192.23 87.9919 191.842 87.3555C191.455 86.7191 191.261 85.7728 191.261 84.5166C191.261 81.9655 192.061 80.6899 193.66 80.6899C195.293 80.6899 196.109 81.9544 196.109 84.4834ZM200.035 89.3477C200.035 90.1169 200.085 90.6785 200.185 91.0327C200.284 91.3813 200.45 91.5557 200.683 91.5557C200.915 91.5557 201.084 91.3813 201.189 91.0327C201.294 90.6785 201.347 90.1169 201.347 89.3477C201.347 88.5785 201.291 88.0195 201.181 87.6709C201.076 87.3223 200.91 87.1479 200.683 87.1479C200.456 87.1479 200.29 87.3223 200.185 87.6709C200.085 88.0195 200.035 88.5785 200.035 89.3477ZM203.115 89.3311C203.115 90.5817 202.904 91.5308 202.484 92.1782C202.063 92.8257 201.457 93.1494 200.666 93.1494C199.836 93.1494 199.227 92.834 198.84 92.2031C198.458 91.5667 198.267 90.6204 198.267 89.3643C198.267 88.1247 198.464 87.1784 198.856 86.5254C199.255 85.8669 199.858 85.5376 200.666 85.5376C202.299 85.5376 203.115 86.8021 203.115 89.3311ZM200.55 80.8643L195.536 93H193.818L198.815 80.8643H200.55ZM214.379 93H208.909V80.8643H214.379V82.8149H211.167V85.7036H214.146V87.6626H211.167V91.0244H214.379V93ZM225.195 93V87.4883C225.195 86.1325 224.86 85.4546 224.19 85.4546C223.703 85.4546 223.355 85.6981 223.145 86.1851C222.934 86.6665 222.829 87.4412 222.829 88.5093V93H220.604V87.4883C220.604 86.1325 220.264 85.4546 219.583 85.4546C219.108 85.4546 218.762 85.6953 218.546 86.1768C218.33 86.6582 218.222 87.4523 218.222 88.5591V93H216.014V83.7529H217.766L218.031 84.9399H218.172C218.394 84.4696 218.695 84.1265 219.077 83.9106C219.465 83.6893 219.877 83.5786 220.314 83.5786C221.443 83.5786 222.195 84.1126 222.572 85.1807H222.655C223.125 84.1126 223.881 83.5786 224.921 83.5786C225.74 83.5786 226.36 83.8664 226.78 84.4419C227.206 85.0174 227.419 85.8586 227.419 86.9653V93H225.195ZM237.945 93L237.505 91.7383H237.455C237.129 92.2806 236.791 92.6541 236.442 92.8589C236.094 93.0636 235.654 93.166 235.123 93.166C234.442 93.166 233.905 92.9115 233.512 92.4023C233.125 91.8932 232.931 91.1849 232.931 90.2773C232.931 89.3034 233.197 88.5812 233.728 88.1108C234.265 87.6349 235.064 87.3721 236.127 87.3223L237.355 87.2725V86.6084C237.355 85.7451 236.982 85.3135 236.235 85.3135C235.681 85.3135 235.045 85.5293 234.326 85.9609L233.562 84.4336C234.481 83.8525 235.479 83.562 236.559 83.562C237.538 83.562 238.282 83.8442 238.792 84.4087C239.306 84.9676 239.563 85.7617 239.563 86.791V93H237.945ZM236.027 91.4395C236.431 91.4395 236.752 91.2596 236.99 90.8999C237.234 90.5347 237.355 90.0505 237.355 89.4473V88.667L236.675 88.7002C236.171 88.7279 235.8 88.8717 235.562 89.1318C235.33 89.3919 235.214 89.7793 235.214 90.2939C235.214 91.0576 235.485 91.4395 236.027 91.4395ZM245.955 93V87.4883C245.955 86.8187 245.875 86.3123 245.714 85.9692C245.554 85.6261 245.294 85.4546 244.934 85.4546C244.458 85.4546 244.11 85.6925 243.888 86.1685C243.667 86.6388 243.556 87.4357 243.556 88.5591V93H241.348V83.7529H243.1L243.365 84.9399H243.506C243.706 84.5138 243.991 84.1818 244.361 83.9438C244.732 83.7004 245.167 83.5786 245.665 83.5786C246.506 83.5786 247.134 83.8664 247.549 84.4419C247.969 85.0174 248.18 85.8586 248.18 86.9653V93H245.955ZM252.396 93.166C251.544 93.166 250.872 92.7454 250.379 91.9043C249.887 91.0632 249.641 89.8927 249.641 88.3931C249.641 86.8879 249.881 85.7091 250.363 84.8569C250.844 84.0047 251.508 83.5786 252.355 83.5786C252.776 83.5786 253.138 83.6838 253.442 83.894C253.752 84.0988 254.037 84.4474 254.297 84.9399H254.43C254.364 84.0988 254.331 83.5094 254.331 83.1719V80.084H256.539V93H254.895L254.521 91.7964H254.447C253.976 92.7095 253.293 93.166 252.396 93.166ZM253.11 91.2983C253.52 91.2983 253.819 91.113 254.007 90.7422C254.195 90.3659 254.297 89.6852 254.314 88.7002V88.4097C254.314 87.3361 254.217 86.5807 254.023 86.1436C253.835 85.7064 253.523 85.4878 253.085 85.4878C252.676 85.4878 252.377 85.7396 252.189 86.2432C252.006 86.7412 251.915 87.4689 251.915 88.4263C251.915 89.3836 252.009 90.103 252.197 90.5845C252.385 91.0604 252.69 91.2983 253.11 91.2983ZM262.93 93L262.49 91.7383H262.44C262.114 92.2806 261.776 92.6541 261.428 92.8589C261.079 93.0636 260.639 93.166 260.108 93.166C259.427 93.166 258.89 92.9115 258.498 92.4023C258.11 91.8932 257.917 91.1849 257.917 90.2773C257.917 89.3034 258.182 88.5812 258.713 88.1108C259.25 87.6349 260.05 87.3721 261.112 87.3223L262.341 87.2725V86.6084C262.341 85.7451 261.967 85.3135 261.22 85.3135C260.667 85.3135 260.03 85.5293 259.311 85.9609L258.547 84.4336C259.466 83.8525 260.465 83.562 261.544 83.562C262.523 83.562 263.268 83.8442 263.777 84.4087C264.292 84.9676 264.549 85.7617 264.549 86.791V93H262.93ZM261.013 91.4395C261.417 91.4395 261.738 91.2596 261.976 90.8999C262.219 90.5347 262.341 90.0505 262.341 89.4473V88.667L261.66 88.7002C261.157 88.7279 260.786 88.8717 260.548 89.1318C260.315 89.3919 260.199 89.7793 260.199 90.2939C260.199 91.0576 260.47 91.4395 261.013 91.4395ZM275.514 93V87.4883C275.514 86.1325 275.179 85.4546 274.51 85.4546C274.023 85.4546 273.674 85.6981 273.464 86.1851C273.254 86.6665 273.148 87.4412 273.148 88.5093V93H270.924V87.4883C270.924 86.1325 270.583 85.4546 269.903 85.4546C269.427 85.4546 269.081 85.6953 268.865 86.1768C268.649 86.6582 268.542 87.4523 268.542 88.5591V93H266.333V83.7529H268.085L268.351 84.9399H268.492C268.713 84.4696 269.015 84.1265 269.396 83.9106C269.784 83.6893 270.196 83.5786 270.633 83.5786C271.762 83.5786 272.515 84.1126 272.891 85.1807H272.974C273.444 84.1126 274.2 83.5786 275.24 83.5786C276.059 83.5786 276.679 83.8664 277.1 84.4419C277.526 85.0174 277.739 85.8586 277.739 86.9653V93H275.514ZM282.943 93.166C281.787 93.166 280.874 92.7565 280.204 91.9375C279.54 91.113 279.208 89.9481 279.208 88.4429C279.208 86.9155 279.51 85.723 280.113 84.8652C280.716 84.0075 281.557 83.5786 282.636 83.5786C283.643 83.5786 284.438 83.9466 285.019 84.6826C285.6 85.4131 285.89 86.4396 285.89 87.7622V88.9409H281.449C281.466 89.7655 281.635 90.3797 281.956 90.7837C282.277 91.1821 282.719 91.3813 283.284 91.3813C284.003 91.3813 284.739 91.1572 285.492 90.709V92.5269C284.783 92.953 283.934 93.166 282.943 93.166ZM282.62 85.2803C282.304 85.2803 282.044 85.4491 281.839 85.7866C281.635 86.1187 281.516 86.6361 281.482 87.3389H283.724C283.713 86.6637 283.61 86.1519 283.417 85.8032C283.223 85.4546 282.957 85.2803 282.62 85.2803ZM291.958 93V87.4883C291.958 86.8187 291.878 86.3123 291.717 85.9692C291.557 85.6261 291.297 85.4546 290.937 85.4546C290.461 85.4546 290.112 85.6925 289.891 86.1685C289.67 86.6388 289.559 87.4357 289.559 88.5591V93H287.351V83.7529H289.103L289.368 84.9399H289.509C289.708 84.5138 289.993 84.1818 290.364 83.9438C290.735 83.7004 291.169 83.5786 291.667 83.5786C292.509 83.5786 293.137 83.8664 293.552 84.4419C293.972 85.0174 294.183 85.8586 294.183 86.9653V93H291.958ZM299.18 91.2983C299.49 91.2983 299.824 91.2209 300.184 91.0659V92.7925C299.824 93.0415 299.285 93.166 298.565 93.166C297.763 93.166 297.168 92.9281 296.781 92.4521C296.393 91.9707 296.2 91.2513 296.2 90.2939V85.5044H295.303V84.5166L296.457 83.7197L297.021 81.7607H298.433V83.7529H300.109V85.5044H298.433V90.3687C298.433 90.9884 298.682 91.2983 299.18 91.2983ZM308.327 88.3599C308.327 89.8761 308.006 91.0576 307.364 91.9043C306.722 92.7454 305.842 93.166 304.725 93.166C304.016 93.166 303.391 92.9723 302.849 92.585C302.306 92.1976 301.889 91.6414 301.595 90.9165C301.302 90.186 301.155 89.3338 301.155 88.3599C301.155 86.8602 301.473 85.6898 302.11 84.8486C302.746 84.002 303.629 83.5786 304.758 83.5786C305.848 83.5786 306.714 84.0103 307.356 84.8735C308.003 85.7313 308.327 86.8934 308.327 88.3599ZM303.413 88.3599C303.413 89.3228 303.518 90.0505 303.729 90.543C303.939 91.0355 304.276 91.2817 304.741 91.2817C305.627 91.2817 306.069 90.3078 306.069 88.3599C306.069 87.3914 305.961 86.6693 305.746 86.1934C305.535 85.7119 305.201 85.4712 304.741 85.4712C304.276 85.4712 303.939 85.7119 303.729 86.1934C303.518 86.6693 303.413 87.3914 303.413 88.3599ZM181.051 116H178.827V108.878C178.827 108.103 178.865 107.212 178.943 106.205C178.904 106.26 178.76 106.429 178.511 106.711C178.268 106.994 177.789 107.5 177.075 108.23L175.813 106.853L179.042 103.864H181.051V116ZM190.489 113.452H189.261V116H187.136V113.452H183.176V111.617L186.845 103.864H189.261V111.584H190.489V113.452ZM187.136 111.584V109.027L187.177 107.898L187.235 106.819H187.169C186.975 107.423 186.765 107.968 186.538 108.455L185.077 111.584H187.136ZM193.029 107.5C193.029 108.269 193.079 108.831 193.179 109.185C193.278 109.534 193.444 109.708 193.677 109.708C193.909 109.708 194.078 109.534 194.183 109.185C194.288 108.831 194.341 108.269 194.341 107.5C194.341 106.731 194.285 106.172 194.175 105.823C194.07 105.469 193.904 105.292 193.677 105.292C193.444 105.292 193.278 105.469 193.179 105.823C193.079 106.172 193.029 106.731 193.029 107.5ZM196.109 107.483C196.109 108.734 195.899 109.686 195.478 110.339C195.063 110.986 194.457 111.31 193.66 111.31C192.836 111.31 192.23 110.992 191.842 110.355C191.455 109.719 191.261 108.773 191.261 107.517C191.261 104.965 192.061 103.69 193.66 103.69C195.293 103.69 196.109 104.954 196.109 107.483ZM200.035 112.348C200.035 113.117 200.085 113.679 200.185 114.033C200.284 114.381 200.45 114.556 200.683 114.556C200.915 114.556 201.084 114.381 201.189 114.033C201.294 113.679 201.347 113.117 201.347 112.348C201.347 111.578 201.291 111.02 201.181 110.671C201.076 110.322 200.91 110.148 200.683 110.148C200.456 110.148 200.29 110.322 200.185 110.671C200.085 111.02 200.035 111.578 200.035 112.348ZM203.115 112.331C203.115 113.582 202.904 114.531 202.484 115.178C202.063 115.826 201.457 116.149 200.666 116.149C199.836 116.149 199.227 115.834 198.84 115.203C198.458 114.567 198.267 113.62 198.267 112.364C198.267 111.125 198.464 110.178 198.856 109.525C199.255 108.867 199.858 108.538 200.666 108.538C202.299 108.538 203.115 109.802 203.115 112.331ZM200.55 103.864L195.536 116H193.818L198.815 103.864H200.55ZM214.653 116L213.956 112.937H210.793L210.096 116H207.838L210.843 103.814H213.906L216.919 116H214.653ZM213.532 110.937L212.885 108.114C212.846 107.943 212.757 107.514 212.619 106.828C212.486 106.136 212.406 105.674 212.378 105.441C212.306 105.917 212.215 106.443 212.104 107.019C211.994 107.589 211.706 108.895 211.241 110.937H213.532ZM226.183 116.166C225.784 116.166 225.43 116.077 225.12 115.9C224.816 115.718 224.531 115.4 224.265 114.946H224.149C224.237 115.698 224.282 116.152 224.282 116.307V120.084H222.057V106.753H223.767L224.149 107.957H224.249C224.708 107.038 225.375 106.579 226.249 106.579C227.09 106.579 227.749 106.996 228.225 107.832C228.701 108.662 228.938 109.838 228.938 111.36C228.938 112.86 228.692 114.035 228.2 114.888C227.707 115.74 227.035 116.166 226.183 116.166ZM225.502 108.455C225.07 108.455 224.758 108.657 224.564 109.061C224.376 109.459 224.276 110.123 224.265 111.053V111.343C224.265 112.361 224.362 113.103 224.556 113.568C224.749 114.033 225.07 114.265 225.519 114.265C226.293 114.265 226.681 113.286 226.681 111.327C226.681 110.364 226.584 109.644 226.39 109.168C226.202 108.693 225.906 108.455 225.502 108.455ZM233.902 116.166C232.746 116.166 231.833 115.757 231.163 114.938C230.499 114.113 230.167 112.948 230.167 111.443C230.167 109.916 230.469 108.723 231.072 107.865C231.675 107.007 232.516 106.579 233.595 106.579C234.602 106.579 235.396 106.947 235.978 107.683C236.559 108.413 236.849 109.44 236.849 110.762V111.941H232.408C232.425 112.765 232.594 113.38 232.915 113.784C233.236 114.182 233.678 114.381 234.243 114.381C234.962 114.381 235.698 114.157 236.451 113.709V115.527C235.742 115.953 234.893 116.166 233.902 116.166ZM233.579 108.28C233.263 108.28 233.003 108.449 232.798 108.787C232.594 109.119 232.475 109.636 232.441 110.339H234.683C234.672 109.664 234.569 109.152 234.375 108.803C234.182 108.455 233.916 108.28 233.579 108.28ZM243.274 113.294C243.274 114.196 243.008 114.902 242.477 115.411C241.951 115.914 241.174 116.166 240.145 116.166C239.231 116.166 238.476 115.986 237.878 115.626V113.709C238.183 113.919 238.537 114.094 238.941 114.232C239.35 114.37 239.71 114.439 240.02 114.439C240.363 114.439 240.623 114.356 240.8 114.19C240.983 114.019 241.074 113.795 241.074 113.518C241.074 113.236 240.98 112.99 240.792 112.779C240.604 112.569 240.258 112.312 239.754 112.007C239.085 111.609 238.603 111.186 238.31 110.737C238.022 110.284 237.878 109.75 237.878 109.135C237.878 108.349 238.147 107.727 238.684 107.268C239.226 106.808 239.967 106.579 240.908 106.579C241.727 106.579 242.499 106.794 243.224 107.226L242.502 108.812C241.91 108.491 241.39 108.33 240.941 108.33C240.659 108.33 240.446 108.405 240.302 108.554C240.164 108.704 240.095 108.886 240.095 109.102C240.095 109.351 240.181 109.572 240.352 109.766C240.529 109.96 240.856 110.201 241.332 110.488C241.907 110.837 242.311 111.133 242.543 111.376C242.776 111.62 242.956 111.897 243.083 112.207C243.21 112.516 243.274 112.879 243.274 113.294ZM247.101 116.166C246.237 116.166 245.562 115.745 245.075 114.904C244.588 114.063 244.345 112.893 244.345 111.393C244.345 109.882 244.583 108.704 245.059 107.857C245.54 107.005 246.201 106.579 247.042 106.579C247.474 106.579 247.848 106.684 248.163 106.894C248.479 107.104 248.764 107.453 249.018 107.94H249.134L249.375 106.753H251.243V120.084H249.035V116.191C249.035 115.992 249.068 115.527 249.134 114.796H249.051C248.819 115.272 248.542 115.621 248.221 115.842C247.9 116.058 247.527 116.166 247.101 116.166ZM247.773 114.315C248.21 114.315 248.523 114.116 248.711 113.717C248.905 113.313 249.007 112.646 249.018 111.717V111.41C249.018 110.391 248.921 109.65 248.728 109.185C248.534 108.72 248.216 108.488 247.773 108.488C247.004 108.488 246.619 109.467 246.619 111.426C246.619 112.406 246.71 113.133 246.893 113.609C247.081 114.08 247.375 114.315 247.773 114.315ZM258.099 116L257.825 114.813H257.709C257.504 115.234 257.211 115.566 256.829 115.809C256.453 116.047 256.021 116.166 255.534 116.166C254.704 116.166 254.076 115.884 253.65 115.319C253.224 114.755 253.011 113.911 253.011 112.788V106.753H255.244V112.256C255.244 112.931 255.324 113.441 255.484 113.784C255.645 114.127 255.905 114.298 256.265 114.298C256.741 114.298 257.086 114.06 257.302 113.584C257.524 113.109 257.634 112.309 257.634 111.186V106.753H259.867V116H258.099ZM263.943 116H261.735V106.753H263.943V116ZM261.644 104.337C261.644 103.972 261.749 103.684 261.959 103.474C262.175 103.258 262.474 103.15 262.855 103.15C263.215 103.15 263.503 103.258 263.719 103.474C263.935 103.684 264.042 103.972 264.042 104.337C264.042 104.714 263.932 105.007 263.71 105.217C263.489 105.422 263.204 105.524 262.855 105.524C262.49 105.524 262.197 105.422 261.976 105.217C261.754 105.007 261.644 104.714 261.644 104.337ZM270.799 113.294C270.799 114.196 270.534 114.902 270.002 115.411C269.477 115.914 268.699 116.166 267.67 116.166C266.757 116.166 266.001 115.986 265.404 115.626V113.709C265.708 113.919 266.062 114.094 266.466 114.232C266.876 114.37 267.236 114.439 267.545 114.439C267.889 114.439 268.149 114.356 268.326 114.19C268.508 114.019 268.6 113.795 268.6 113.518C268.6 113.236 268.506 112.99 268.317 112.779C268.129 112.569 267.783 112.312 267.28 112.007C266.61 111.609 266.129 111.186 265.835 110.737C265.548 110.284 265.404 109.75 265.404 109.135C265.404 108.349 265.672 107.727 266.209 107.268C266.751 106.808 267.493 106.579 268.434 106.579C269.253 106.579 270.025 106.794 270.75 107.226L270.027 108.812C269.435 108.491 268.915 108.33 268.467 108.33C268.185 108.33 267.972 108.405 267.828 108.554C267.689 108.704 267.62 108.886 267.62 109.102C267.62 109.351 267.706 109.572 267.877 109.766C268.055 109.96 268.381 110.201 268.857 110.488C269.432 110.837 269.836 111.133 270.069 111.376C270.301 111.62 270.481 111.897 270.608 112.207C270.736 112.516 270.799 112.879 270.799 113.294ZM276.726 116L276.286 114.738H276.236C275.91 115.281 275.572 115.654 275.224 115.859C274.875 116.064 274.435 116.166 273.904 116.166C273.223 116.166 272.686 115.911 272.293 115.402C271.906 114.893 271.712 114.185 271.712 113.277C271.712 112.303 271.978 111.581 272.509 111.111C273.046 110.635 273.846 110.372 274.908 110.322L276.137 110.272V109.608C276.137 108.745 275.763 108.313 275.016 108.313C274.463 108.313 273.826 108.529 273.107 108.961L272.343 107.434C273.262 106.853 274.261 106.562 275.34 106.562C276.319 106.562 277.064 106.844 277.573 107.409C278.087 107.968 278.345 108.762 278.345 109.791V116H276.726ZM274.809 114.439C275.213 114.439 275.534 114.26 275.771 113.9C276.015 113.535 276.137 113.05 276.137 112.447V111.667L275.456 111.7C274.952 111.728 274.582 111.872 274.344 112.132C274.111 112.392 273.995 112.779 273.995 113.294C273.995 114.058 274.266 114.439 274.809 114.439ZM284.072 106.579C284.343 106.579 284.609 106.62 284.869 106.703L284.612 108.845C284.457 108.789 284.255 108.762 284.006 108.762C283.469 108.762 283.057 108.975 282.769 109.401C282.481 109.821 282.337 110.436 282.337 111.244V116H280.129V106.753H281.947L282.196 108.197H282.271C282.514 107.616 282.78 107.201 283.068 106.952C283.356 106.703 283.69 106.579 284.072 106.579Z" fill="white"/>
<defs>
<filter id="filter0_d" x="15" y="16" width="149" height="149" filterUnits="userSpaceOnUse" color-interpolation-filters="sRGB">
<feFlood flood-opacity="0" result="BackgroundImageFix"/>
<feColorMatrix in="SourceAlpha" type="matrix" values="0 0 0 0 0 0 0 0 0 0 0 0 0 0 0 0 0 0 127 0"/>
<feOffset dy="4"/>
<feGaussianBlur stdDeviation="2"/>
<feColorMatrix type="matrix" values="0 0 0 0 0 0 0 0 0 0 0 0 0 0 0 0 0 0 0.25 0"/>
<feBlend mode="normal" in2="BackgroundImageFix" result="effect1_dropShadow"/>
<feBlend mode="normal" in="SourceGraphic" in2="effect1_dropShadow" result="shape"/>
</filter>
</defs>
</svg>
