<?xml version="1.0" encoding="UTF-8"?>
<!DOCTYPE svg PUBLIC "-//W3C//DTD SVG 1.1//EN" "http://www.w3.org/Graphics/SVG/1.1/DTD/svg11.dtd">
<!-- Creator: CorelDRAW 2020 (64 Bit) -->
<svg xmlns="http://www.w3.org/2000/svg" xml:space="preserve" width="202.849mm" height="82.8248mm" version="1.1" style="shape-rendering:geometricPrecision; text-rendering:geometricPrecision; image-rendering:optimizeQuality; fill-rule:evenodd; clip-rule:evenodd"
viewBox="0 0 19886.45 8119.77"
 xmlns:xlink="http://www.w3.org/1999/xlink"
 xmlns:xodm="http://www.corel.com/coreldraw/odm/2003">
 <defs>
  <style type="text/css">
   <![CDATA[
    .fil0 {fill:#201E1E}
   ]]>
  </style>
 </defs>
 <g id="Camada_x0020_1">
  <metadata id="CorelCorpID_0Corel-Layer"/>
  <path class="fil0" d="M19886.45 8119.08l-0.01 0.7 0.01 0 0 -0.7zm-19351.86 -3667.64c671.38,363.92 1582.2,636.11 2323.83,850.24 1726.39,498.44 3723.04,909.84 5510.02,1358.63 133.84,33.61 292.63,96.09 417.7,119.14 127.87,23.57 3700.86,25.72 4217.06,22.62 334.92,-2.01 744.58,24.86 1068.41,-0.2l-69.35 -30.42c-21.62,-6.77 -46.97,-10.87 -69.57,-15l-2282.95 -432.54c-809.29,-140.59 -1618.85,-320.68 -2419.56,-486.06 -914.16,-188.8 -6235.4,-1253.64 -6641.21,-2029.66 -187.67,-358.87 552.49,-499.32 830.21,-571.7 384.98,-100.34 776,-191.39 1160.71,-292.88 768.81,-202.8 1551.26,-390.89 2323.97,-580.65 362,-88.91 2060.86,-511.89 2277.54,-627.64 -81.19,-200.28 -1506.85,-568.84 -1876.25,-672.19 -123.72,-34.62 -531.41,-142.7 -621.05,-249.92 198.43,63.13 319.19,130.63 646.09,226.74l1319.85 381.73c111.19,35.17 210.77,74.51 319.59,115.97 114.21,43.52 204.1,70.96 253.65,178.52 -51.75,115.31 -204.73,127.16 -344.19,171.31 -373.56,118.23 -883.78,237.83 -1273.27,345.98 -560.18,155.55 -1138.44,282.26 -1698.66,437.48 -879.21,243.62 -1743.18,421.4 -2561.74,653.98 -269.33,76.53 -656.57,143.34 -711.17,382.7 24.22,509 3191.92,1276.12 3709.66,1388.32 684.28,148.28 1374.19,318.92 2069.07,463.91 706.56,147.44 1412.92,286.78 2122.92,425.12 706.37,137.63 1422.2,265.66 2131.17,404.34l2012.07 375.54c318.75,93.92 347.46,38.7 731.4,44.02l3175.23 11.04c412.26,-0.62 887.02,26.81 1290.95,0.81 -121.94,-74.7 -3622.28,-670.63 -3841.6,-708.05 -2580.69,-440.39 -5208.8,-870.36 -7775.89,-1354.59 -154.32,-29.12 -3562.98,-640.28 -3525.99,-1050.47 15.26,-169.28 799.66,-342.41 1043.65,-418.77 1119.62,-350.39 2251.46,-645.12 3397.67,-1022.24 249.02,-81.94 973.18,-260.87 1050.59,-426.01 165.09,-352.18 -1883.72,-725.53 -2130.49,-776.88 -205.18,-42.69 -692.51,-148.43 -885.35,-215.41 -746.26,-259.25 816.94,-535.98 1012.3,-573.09 415.73,-78.95 1007.41,-193.28 1420.51,-227.62l-87.07 -24.4c114.93,-1.36 173.28,30.77 283.64,-18.68 -137.9,-25.93 -915.96,66.67 -1010.63,114.89l131.11 18.94c-193.46,-4.25 -1221,220.58 -1465.39,259.88 5.23,-3.74 13.23,-14.94 16.39,-10.12l1026.4 -211.43c6.62,-1.02 63.44,-9.59 71.38,-11.37l83.98 -29.3c-405.07,13.32 -1567.84,273.7 -1999.91,435.91 -100.59,37.77 -197.47,79.98 -286.42,128.56 -106.72,58.3 -189.68,96.55 -192.34,238.38 356.96,304.48 2911.07,582.37 1494.33,918.8 -1153.9,274.01 -2621.61,496.62 -3795.61,708.41 -716.87,129.32 -1432.21,276.72 -2119.38,452.01 -348.58,88.92 -661.13,186.73 -1001.52,285.64 -741.1,215.36 -1208.91,631.52 -256.51,1147.74z"/>
 </g>
</svg>
